<svg id="Layer_1" data-name="Layer 1" xmlns="http://www.w3.org/2000/svg" viewBox="0 0 1612.41 2786.38"><defs><style>.cls-1{fill:#231f20;}</style></defs><path class="cls-1" d="M1648.41,2284.35c-10.91-11.42-21.53-23.17-32.44-34.59-2-2.2-5-3.62-7.46-5.43l-2.15,1.64c1.92,18.09,3.9,36.12,5.88,54.55-14-2.38-6.61-16.28-13.85-23.35-.85,4.07-1,7.24-2.2,9.95-1,2.15-3.17,3.79-4.81,5.65-1.58-1.86-4.35-3.61-4.63-5.7a281.75,281.75,0,0,1-2.55-30c-.22-8.42.79-16.9,1.36-26.91-15.71,4.35-23.46,17.36-37.31,26.85.06-.56.17-1.07.23-1.58-6.33,9.33-11.08,16.79-16.34,23.91-3.61,4.86-2.37,7.57,2.43,10.51,36.86,22.78,74.28,24.87,112.66,4C1652.43,2291.08,1652.26,2288.37,1648.41,2284.35Zm735.66-497.52a407.82,407.82,0,0,0-3.67-43.86c-3.62-26.91-9.67-53.59-11.48-80.61-1.3-19.38-10.23-35.44-16.22-52.79-6.33-18.37-16.62-35.44-22.33-53.92-4.57-14.64-15-21-27-24.08-29.62-7.63-59.64-13.51-89.65-19.56-8-1.58-16.84-3.17-24.42-1.19-27.7,7.3-45.05,29.73-65.57,47.43-3,2.6-5.2,6.33-7.63,9.66-12,16.45-24.08,32.79-35.78,49.46-10.4,14.75-21.36,29.28-30.18,45-10.51,18.94-18.77,39.12-28.49,58.56-5.65,11.42-12.21,22.39-18.37,33.52q-13.3,24.07-26.62,48.22a8.6,8.6,0,0,1,.34-7.18c6.16-11.82,12.66-23.52,18.76-35.39,9-17.58,18.09-35.1,26.46-53,10.17-21.87,20.18-43.81,29.22-66.13,8.93-22,17.75-44.26,24.47-67,6.39-21.42,9.27-43.81,15-65.46,4.86-18.37,6.78-36.74,7.12-55.67.34-22,2.54-44,3.17-66a355.75,355.75,0,0,0-1.19-41c-1.13-13-4.18-25.94-5.65-39-2.15-18.48-6.84-35.55-23.29-46.86-8.71-5.93-17.3-12-26.28-17.46-20.07-12.27-38.27-27.76-61.16-35.27-15.94-5.26-31.49-11.76-47.31-17.24a17.33,17.33,0,0,0-10.46.34,83.58,83.58,0,0,0-14.87,7.29c-10.79,6.33-20.68,15-32.22,19-20.57,7.23-33.85,22.27-45.61,38.6-18,25-35,50.76-50.81,77.1-9.05,15-15.72,31.6-22.22,48-6.27,15.83-11,32.27-16.45,48.5-1-.34-1.92-.68-2.82-1,2-5.71,4.46-11.25,6.16-17.08,4.58-16,8.53-32.27,13.34-48.27,3.33-11,8.7-21.42,11.25-32.55a253.91,253.91,0,0,0,5.54-39.06c2.26-31.09,3.67-62.24,5.76-93.38.57-8.42,2-16.79,3.17-25.21,1.86-13.62,4.07-27.19,5.54-40.81,1.58-14.86,2.37-29.84,3.78-44.71.68-7.23,2.15-14.41,3.11-21.59,1.92-13.91,3.79-27.81,5.48-41.77,1.87-15.1,3.34-30.19,5.2-45.28,2.32-19,5.71-38,7-57.14,1.25-18.09.23-36.35.51-54.55.45-34.59.79-69.18,1.81-103.78.4-14,2.32-28,3.79-42,2.77-25.55,6.05-51.1,8.36-76.7,1.42-15.89,1-31.88,2.15-47.77,1.92-26,5.54-51.89,6.56-77.89,1.13-31.09.62-62.29.17-93.43-.17-8.93-2-18-4.13-26.68-3.79-15.43-13.62-27.81-21.82-41.15-9.83-16.11-22.83-28.94-35.55-42.45-14.81-15.71-32.33-21.25-53.08-20.12-15.09.85-30.46,3-45.33,1.24-15.54-1.86-26.28,6.56-37.81,13.06-14.7,8.31-28.32,18.54-42.17,28.26-9.67,6.84-17.75,14.75-19.84,27.58-1.53,9.33-4.86,18.43-7.69,27.53-4.35,13.57-9.1,27-13.39,40.64-3.85,12.1-7.13,24.36-11.08,36.4-5,15.15-10.8,30.07-15.6,45.28-3.68,11.59-6.45,23.46-9.39,35.27-3.5,14.24-7.57,28.43-9.94,42.85-4.3,25.88-7.46,51.94-11.31,77.88-.85,5.71-2.77,11.31-4,17-2.76,13.34-5.82,26.68-8,40.13-2.6,16.51-4.47,33.07-6.56,49.63-2.6,20.24-5.14,40.47-7.74,60.71-1.87,14.19-3.51,28.43-5.82,42.56-3.11,19.45-6.9,38.89-10.12,58.33q-5.26,32-10,64-2.46,16.44-4.24,33c-1.52,14-2.71,28-4.07,42-.56,6.16-1.07,12.27-1.86,18.37-2.15,16.23-4.35,32.39-6.56,48.61-1.81,13.85-2.82,28-5.76,41.66-2.15,10.06-7.8,19.39-10,29.51-4.63,20.69-8,41.66-11.87,62.51-3.84,20.3-7.74,40.53-11.64,60.82-2.43,12.55-4.92,25.16-7.52,37.7-3.33,15.55-7,31.09-10.23,46.69-2.49,11.93-4.69,23.91-6.9,35.9-1.92,10.28-4.41,20.51-5.31,30.91-.73,8.6.51,17.3.79,24.93-21.25-8.76-44.48-7.23-69.52-3.73-1-11.87-1.64-23.4-3-34.82-1.36-11-3.23-21.93-5.43-32.78-1.87-9.33-6.73-18.54-6.39-27.58.85-22.84-6.78-43.87-10.68-65.63-3.85-21.37-9-42.51-12.78-63.93-3.16-18.09-5.08-36.46-7.4-54.66-.9-7.29-1.13-14.69-2.15-21.93-3.22-23.12-6.72-46.18-10.12-69.24-4-26.74-7.57-53.53-11.92-80.26-3.22-19.62-8.2-38.95-11-58.62-3.79-26.68-7.06-53.41-8.93-80.26-2.2-32.11-3-64.27-3.79-96.43-.62-26.06.68-52.18-5.37-77.84-3.39-14.35-6.33-28.77-10.23-43-3.11-11.42-7.74-22.44-11-33.86-4-13.85-7.18-27.92-11-41.77-3.22-11.47-7.41-22.67-10.29-34.2-6.44-25.77-12.32-51.72-18.59-77.55a168.83,168.83,0,0,0-26.18-57.88c-6.67-9.55-13.11-19.05-22.55-26.34a121.4,121.4,0,0,1-19.1-18.26c-15.15-18-34.26-27.92-57.6-29.44a125.16,125.16,0,0,0-22.16.45c-8.87,1-17.63,3.05-26.4,4.75-2.77.56-6.1.67-8,2.37-11.25,9.61-22.33,19.44-33.12,29.56-4.92,4.64-9.9,9.61-13.29,15.38a293.71,293.71,0,0,0-15.6,30.69c-4.8,10.63-11.19,21.31-12.72,32.56-3.78,27.75-5.93,55.79-7.29,83.82-1.52,31.09-1.75,62.23-1.81,93.38-.11,22.33.51,44.6,1.59,66.87,1.41,29.95-3.11,59.91,3.05,89.87,4.18,20.29,5.93,41.15,7.35,61.84,2,28.65,2.65,57.37,3.78,86.08.29,6.33-.17,12.66.12,19,1,24.71,2.2,49.35,3.44,74a53.73,53.73,0,0,0,1.19,10.46c6.95,27.92,11.19,56.24,11.31,85,.17,32.9-.06,65.79-.06,98.75,0,2.88.57,5.82.73,8.76.4,7.46,1.08,14.92,1,22.38-.05,5.82-1.69,11.65-1.41,17.41.51,8.59,2.2,17.13,3.22,25.72.28,2.32-.06,4.75.23,7.12q3.39,30.43,7,60.82c2.31,19.5,4.46,39,7.29,58.39,3.73,25,9.27,49.91,11.75,75.12,3.11,31,3.62,62.29,5.83,93.38,1.3,18.09,3.16,36.12,5.71,54q5.34,38.67,12.26,77c1.24,6.78-1.41,15.88,10.29,20-9.78,2.43-17.69,3.45-24.82,6.44-6.95,2.94-15.14,6.56-19,12.38-5.94,8.88-9.39,19.67-12.67,30.07-7.34,23.52-13.73,47.37-20.91,71-2.54,8.19-7.23,15.82-9.44,24.08-5.14,19.33-9.61,38.83-13.9,58.39-4.07,18.48-7.63,37.07-11.37,55.61-1.92,9.45-3.22,19-5.76,28.27-5.77,21.31-12.1,42.39-18.26,63.53-4.35,14.81-8.59,29.62-13.34,44.26-5,15.49-11.64,30.52-15.65,46.23-8.48,33-16.79,66.08-23.07,99.54-3.16,16.62-3.11,34.14-2,51.1,1.36,21.71,12.21,40.7,21.7,59.8,7.07,14.36,14.3,28.6,21.54,42.85,12.27,24.08,24.3,48.27,37,72.12,15,28.32,29.73,56.81,46.12,84.28,19.78,33.12,40.36,65.74,62.23,97.5,16.85,24.54,36.35,47.2,54.38,70.94,11.13,14.64,22,29.51,32.56,44.66,6.16,8.93,10.4,19.38,17.12,27.86,31.26,39.63,63.08,78.91,94.91,118.14,2.48,3,6.5,4.86,10,6.78,5.82,3.16,12.66,4.92,17.64,9,15.65,13,29.39,28,51.94,30.13,10.35,1,20,8.2,30.36,10.63,23,5.37,46.23,9.55,69.41,14a167.89,167.89,0,0,0,24.3,3.28c10.52.4,21.14-1,31.66-.34,15.77,1,31.48,4.07,47.19,4.41,12,.23,24-.28,36,.12,14.47.39,28.94-.12,43.41.28,35.1.85,70.21,2.94,105.31,2.88,38.15,0,76.25-1.92,114.34-3.11,11.82-.39,23.63-.62,35.39-1.81,13.62-1.35,27.24-5.31,40.81-5.25,29.84.22,58.28-8.2,87-13.51,15.88-3,31.59-10.63,45.61-19.11,22.21-13.45,48-21.82,64.83-43.8,6.62-8.65,16.56-14,15.66-27.87-1.13-17.64,4-34.82,12.61-50.14,7-12.37,15.82-23.85,24.36-35.27,7.68-10.17,16.62-19.5,24.08-29.79,10.57-14.52,20.46-29.56,30.35-44.54,5.37-8.14,10.8-16.39,15-25.15,7-14.3,13.23-29,19.28-43.69,12.55-30.41,26-60.48,33.52-92.81,4.86-20.86,12.15-41.1,18.31-61.56.17-.56.34-1.13.57-1.69,3.9-10,8.53-19.84,11.58-30.13,4.13-13.91,6.73-28.21,10.57-42.17,1.64-6,7.18-11.59,7-17.18-.56-13.34,6.16-24.36,9.33-36.4,4.64-17.36,12.15-33.92,17.58-51.16,5.43-17.41,9.83-35.16,14.58-52.79,4.86-18,9.33-36.06,14.53-54,3.79-13.06,8.87-25.72,12.83-38.72,3.17-10.46,5.26-21.31,8.37-31.82,1.75-6,5-11.53,6.72-17.53,2.88-9.77,4.41-19.95,7.69-29.56,10.4-30.86,20.23-61.66,25.21-94.17,5.2-33.85,14.24-67.15,20.74-100.89,3.79-19.73,8-39.79,8.26-59.75C2386.28,1879.19,2385,1833,2384.07,1786.83Zm-349.49-7.29c-2.65-7.69-7.17-13.91,4.19-19.62-4.07-.22-5.88-.33-7.75-.45-.17-.68-.34-1.35-.5-2,2.37-.85,5.42-3.11,7-2.32,11,5.31,14.25-3.34,18.54-9.89,7.3-11.08,14.42-22.33,21.48-33.52,1.92-3,3.51-6.22,5.2-9.33,1.19,1,2.38,2,3.51,2.94-.51,2-1,3.9-1.58,5.88L2087,1713c1.36-3.17,2.77-6.33,4.13-9.5,1.13.74,2.32,1.53,3.45,2.26-.91,9.61-1.81,19.22-2.66,28.6,1.3-1.13,3-2.71,4.86-4.24.34.23.62.46,1,.68-7.29,15.66-14.36,31.43-22,46.92-2.32,4.75-2,7.52,1.81,11.36,7,7.12,13.11,15,20.46,23.51,2.26-4.41,3.56-8.36,6-11.53,4.35-5.54,7.52-12.77,17-12,2.82.23,5.93-3.22,11.25-4.07-1.08,3.22-2.1,6.5-3.06,9.55,3.34.85,7.52,1.93,12.49,3.28-2.09,3.73-3.5,6.28-6.1,10.8,4.52-1.76,6.9-2.66,9.16-3.56q-9.42,15.86-18.32,30.8c5.83,12.21,15.55,18.32,27.64,20.8,6.16,1.25,8.26-2.48,10.18-8.19,8-23.74,16.67-47.2,25.26-70.66.85-2.32,2.77-4.24,4.19-6.39.67.34,1.3.63,2,.91-1.42,4.69-3.57,9.33-4.07,14.13-.34,3.28,1.52,6.78,2.31,10.23a11,11,0,0,1,.57,3.79c-1.08,8.31-4.18,15.94-1,25.09,1.92,5.49-1.41,13.34-3.79,19.56a311.59,311.59,0,0,1-14.69,32.67c-4.86,9.33-15.83,14.36-26.4,10.06-13.23-5.31-25.38-13.34-37.76-20.68-2-1.19-2.54-4.81-4.29-8.31-5.26-1.87-12.95-.45-16.9-9.16-2.77-6-9.9-10-14.64-15.26s-8.93-11-13.34-16.51c.28-1.18.56-2.43.84-3.61-3.61,1.47-7.34,2.71-10.79,4.46-4.18,2.15-7.63,3.62-9.44-2.71-.68-2.43-2.54-4.58-3.84-6.84-2.32,1.86-4.53,3.67-7.8,6.39-3-7-6.51-11.7.22-18.71C2034.36,1793.1,2036.28,1784.45,2034.58,1779.54Zm25.33,56.46c-5.15,4.92-7.52,2-6.16-4.29a63,63,0,0,1,2-6.44l2.65-.51C2059,1828.6,2061.55,1834.48,2059.91,1836Zm-82.08,46.13c.23,3.95.46,8,.74,12,1.19,18.82,2.09,37.65,3.84,56.41.51,5.2,3.62,10.18,5.88,16,9.72-5.25,18.37-9.94,27-14.63l.68.67-6.33,7,1.69,2c4.13-2.88,8.26-5.77,13.85-9.72-3.22-.34-5.09-.51-7-.74-.34-.79-.62-1.58-.9-2.37,9.83-4.64,19.72-9.27,29.61-13.8.74-.39,2,0,2.49-.56,5.48-6,11.7-7.29,19.22-4.3,9.55,3.85,17.13,9.33,19.27,20.13,1.47,7.8,3.45,15.48,4.3,23.34.56,4.75,1.75,10.4-5.14,12.94-1.36.51-2.66,4.41-2.21,6.39,4.13,19.39-7.63,33.46-16.56,48.1-4,6.56-10.4,11.93-16.56,16.79-3.62,2.88-8.71,4.13-13.34,5.37-4.47,1.19-9.21,1.3-13.79,2-2.32.28-4.81,1.41-7,1-6.61-1.53-13.11-3.56-20.29-5.6.57-1.18,1.64-3.27,2.83-5.7-7-1.3-10.57-3.45-11.59-12-1-8,6.44-9,6.28-15.49l8.81,6.67c1-3,1.64-5.15,2.21-6.9,12.94.91,25.77,1.41,32.84-12.32s14-27.3,19.39-41.54c1.92-5.15-.63-12-1.13-18-.91-.56-1.76-1.07-2.66-1.58q-22.38,17.55-44.77,35c.34.79.74,1.52,1.08,2.31,9-5,18.08-10,28.2-15.6-12,14.59-31,20.75-47.59,21.14-11.36.29-20.18-1.18-27.64-9.61-10.46-11.87-17.58-25.43-18.66-41.32-1-13.79-1.69-27.64,4.41-41,2.32-5.08.46-11.92,2.26-17.4,1.87-5.66,5.6-10.86,9.16-15.78,1-1.41,4.24-1.18,6.44-1.69.46,2.15,1.47,4.3,1.3,6.33-.39,3.51-1.86,6.9-2.14,10.34-.17,1.87,1.24,3.85,2,5.77,1.58-1.3,3.5-2.37,4.57-4s1.64-4.07,2.38-6.16C1976.2,1882,1977,1882.07,1977.83,1882.13Zm-120,170.47c-3.39-15,4-29.56,10.29-44.2,14-32.61,28-65.17,42.62-97.56,8.65-19.22,17.86-38.26,27.75-56.92,3.9-7.35,10.4-13.28,16.4-19.44A1435,1435,0,0,0,1857.83,2052.6Zm174.1-501.42c-8.14,38.1-27.3,71.33-45.62,105-11,20.17-21,40.86-32.27,60.93-11.59,20.63-24.14,40.7-36.18,61-16,27.14-31.2,54.89-48.27,81.4-19,29.56-39.51,58.22-59.91,86.93-7.92,11.14-17.13,21.42-25.78,32-1.07-.73-2.09-1.52-3.16-2.32,6.61-7.8,13.84-15.2,19.72-23.51q15.86-22.47,30.24-45.84c17.75-28.88,35.1-58,52.29-87.16,18-30.69,36.17-61.39,53.41-92.53,18-32.61,34.65-65.91,52.4-98.69,10-18.32,22.16-35.55,31-54.38,7.06-15.09,10.57-31.88,15.6-47.93,1-3.22,1.81-6.5,2.71-9.78.73.17,1.53.4,2.26.62C2037.52,1528.34,2034.36,1539.71,2031.93,1551.18ZM1751.68,1963.3c-4.46,4.57-8,3.22-12.38-.79-20.12-18.09-36.62-39.51-56.58-57.77-19.38-17.81-38-36.46-56.69-55.11-3.9-4-11.19-7.69-5.65-15.49-4.24-5.14-16.06,9-15.21-8,8.71,1,15.49-1.07,23.12-5.54,7.18-4.3,18-1.47,25.27,5.71,12,11.87,24.13,23.57,35.83,35.72,14,14.53,27.64,29.45,40.64,43.3,2.38-1.47,6.45-3.39,9.73-6.27,2.48-2.21,4.12-5.54,5.76-8.6q12.21-22.89,24.19-46c.68.29,1.36.51,2,.79.34,1.76.68,3.51,1.13,5.71,10.85-15,21.42-29.61,32-44.25l1.7,1c-2.38,4.69-4.69,9.44-7.07,14.13.45.34.85.74,1.3,1.13,4.86-6,9.67-11.92,14.53-17.86.9.57,1.86,1.13,2.82,1.64q-14.14,28.83-28.31,57.6a11,11,0,0,0,1.24.62c1.64-2.09,3.28-4.24,4.92-6.33.68.28,1.3.57,2,.85-1.3,4.24-2.26,8.7-4,12.77-6.5,14.87-13.22,29.62-20,44.37-5,10.8-10.06,21.54-15.37,32.11-1.75,3.45-4.58,6.33-6.9,9.5-.84-.34-1.69-.68-2.54-1C1750,1959.28,1750.84,1961.26,1751.68,1963.3Zm-175.56,109.09c-23.12,10.17-45,20.91-62.57,38.94,12.26-3.22,21.59-14.13,36.12-12.32-46.64,34.71-72.3,77.89-60.26,138.48-2.2-2.54-4.41-5.08-8.53-9.94-.62,10.23-1.13,18-1.59,25.77.51.17,1,.4,1.53.62.85-1.13,1.7-2.26,1.81-2.43,3.45,4.35,7.12,8.88,10.85,13.45.91,1.14,2.55,2.15,2.71,3.34,2,15.83,14.19,22.95,26.4,30.13-10.74-13.74-22.21-27-25.94-44.94,8.25,9.72,13.17,22.72,28.09,26.45,1.13-4.35,2.15-8.42,2.77-11l-11.7-5.32c2.71-4.4,5.37-8.81,6.89-11.36,5.71,2.32,8.94,4.53,12.21,4.7,3.85.16,7.86-1.31,13.68-2.61.62-4.4,1.08-7.4,1.53-10.85-2-1-4.24-2.09-7.75-3.84,9.73-8.31,18.6-16.34,30.92-18.37,5.09-.85,8.2-1.92,8.48-7.91.12-2.72,2.83-5.26,4.07-8a54,54,0,0,0,2-6.11c-2.21-.33-4.41-.67-7.63-1.13V2160.9c.79,0,1.64-.05,2.48-.11v32.84c1.13.06,2.26.06,3.45.11,5.6-10.28,3-22.21,5.2-35.21,2.21,3.9,3.68,6.33,5.48,9.5,1.87-4.19,3.45-7.69,5-11.2.68,0,1.36.06,2.1.06.39,2.32,1.18,4.58,1.18,6.9.06,7.68-.39,15.37-.28,23.06.11,5-1.75,11.08,6.5,12.15,1.41.17,2.49,3.05,3.67,4.69,11,14.93,21.71,30,33,44.66,5,6.5,11.2,12.26,16.85,18.37,5.93,6.38,10.57,4.35,14.75-2.15,2.15-3.39,4.64-6.61,6.95-9.89.85.45,1.76.85,2.6,1.3-3.5,6.22-7.06,12.43-10.57,18.65.85.62,1.64,1.3,2.49,1.92,3.79-4,9.16-7.46,11.08-12.26,3-7.69,7.12-10.4,14.92-7.92.62.23,1.58-.51,2.32-.73,1.3-6.45,2.6-12.66,3.9-18.88-.51-.11-1-.28-1.58-.4l-4.41,7.46c17.07-76.64-9.16-132.54-78.8-168.89,29.34,2.43,82.08,33.18,95.36,98.35,11.42,55.85-11.81,116.44-66.92,144.7-58,29.79-121.53,17-161-30.29-40.53-48.61-43.36-111.69-6.79-164.49C1511.46,2091.15,1558,2064.64,1576.12,2072.39Zm-.28-151.71c.79-.06,1.58-.17,2.37-.23q2,18.91,4.07,37.82c-.73,0-1.53.17-2.26.22C1578.61,1945.89,1577.25,1933.28,1575.84,1920.68ZM1563.4,2214l-27.47,29C1532.37,2236.59,1550.51,2215.79,1563.4,2214Zm42.11-108.13c1.3.34,2.66.68,4,1-1.3,14.64-2.54,29.22-3.84,44-5.66-2.2-9.11-3.61-14.59-5.76C1595.73,2132.42,1600.59,2119.13,1605.51,2105.85Zm-3.5-96.32c19.84,8.37,39.06,20,59.74,24.2s43.13,4.35,62.74-9.11c.51,1.08,1.08,2.1,1.59,3.11-5.49,2.94-10.74,6.67-16.56,8.54-6.62,2.15-13.74,2.43-20.52,4-26.06,5.7-46.69-8.2-68.11-18.83C1614.22,2018.13,1608.11,2013.77,1602,2009.53ZM1657,2112.41c41.09,16.73,62,101.63,36.06,132.26C1710.7,2192.44,1698.38,2148.53,1657,2112.41Zm-55.73-866.18c1,11.48,2.94,22.78,4.52,34.15-.85.67-1.7,1.41-2.49,2.09-5.31-4.69-10.68-9.39-16-14.08v11.82c-.73.11-1.52.28-2.26.39l-4.63-13.17c-1.7,5.77-3.73,12.66-5.54,18.77-4.64-2.15-8.08-3.68-11.47-5.2-.46.79-1,1.81-1.76,3.11-4.86-12.5-9.49-22.9-9.38-34.77.11-12.32,0-24.64,0-37l2.77-.51c-1.58-.4-3.22-.79-6.73-1.59,12.27-5.76,8.82-16.44,10.69-24.75,1.75-7.8,2.48-15.09,7.17-22.44,5.26-8.14,6.62-18.77,9.78-28.26,1.7-5.32,3.62-10.52,5.37-15.49-6.38-5.48-12.66-11-19.27-16.68.68-1.13,5.54-3.44,18-8.93l-6.11.85c-.56-.56-1.13-1.13-1.69-1.64,2.2-2,4.24-5.59,6.67-5.82,6.1-.68,9.83-1.87,7.63-9.1-.34-1.07.73-2.6,1.3-3.84,1.36-2.83,2.77-5.6,4.75-9.5,17.92-3,14.19-2.37,13.17-11.81,9.49-4.58,19.5-2.21,27,2.65,6.21,4,10.79,12.89,9.72,21-1.53,11.48-5.31,22.67-8.48,33.92-1.24,4.46-3.45,8.65-5,13-4.75,13.17-10,26.23-13.91,39.63-3.27,11.13-4.52,22.78-7.51,34-1.53,5.87-6.39,11.13-6.9,16.9C1599.69,1224.64,1600.31,1235.55,1601.22,1246.23Zm65.68,336.6c10.51-17.41,21.42-34.59,31.2-52.39,5.65-10.23,9.21-21.65,14-32.33,3.84-8.54,8.19-16.85,12.32-25.21.79.45,1.52.9,2.26,1.41-7.24,19.1-14.19,38.38-21.76,57.37s-15.55,38-23.46,57c-3.33,8-7.8,15.6-10.12,23.8-2.43,8.7-3,17.92-4.29,27-1.42,10-2.72,20.07-5.43,30.07,6.56-38.26-15.2-61.67-44.2-83.88,7.35,2.09,12.55,2.66,17,4.92C1652.88,1600.19,1656.89,1599.45,1666.9,1582.83Zm40.07,63.71c2.21,6.21,4.47,12.43,6.73,18.65-1,.28-1.87.62-2.83.9C1709.12,1659.54,1700.36,1655.3,1707,1646.54Zm-.45,27c-3.45,3.73-5.65,7-8.65,9.1-1.81,1.3-4.92.79-7.4,1.07.11-2.66-.79-6.27.62-7.74,2.83-2.89,6.9-4.64,11.87-7.69C1704.37,1670.39,1705.84,1672.59,1706.52,1673.56Zm9.21-63.82c5.09,3.11,10.86,4.75,7.35,11.14-.9,1.69-6.27,2.93-7.91,1.86C1708.61,1618.45,1714.49,1614.6,1715.73,1609.74Zm154.82-260c3-4.36,7-8,8-12.38a26.53,26.53,0,0,0-1.36-14.92c-2.26-6.17-6.22-11.59,3-15.15.39-.17.17-2.15.22-3.51h-5.7c-.17-1-.57-1.69-.34-2,4.8-6.39,9.77-3,16,.85,3.56-4.19,7.69-8.2,10.8-12.89,8.47-12.78,16.56-25.83,24.75-38.83,2.21-3.45,4.24-7,6.39-10.52,1.07,1,2.09,1.92,3.17,2.89-.46,2.6-.91,5.25-1.47,8.81,4.57-3.39,8.19-6,11.64-8.59-1.3,10.8-2.54,21.31-3.9,32.56l6-5.09c0,1.41.28,2.32,0,2.94-8,17.07-16.16,34-23.85,51.21-1.19,2.54-1.19,7.24.39,9.21,7.52,9.44,15.72,18.26,24,27.76,4.07-6.28,6.78-13.51,11.92-17.75,7-5.82,15.83-9.33,23.91-13.79.91.51,1.75,1,2.66,1.52-1.41,3.9-2.83,7.8-3.85,10.52,4,1.18,8.2,2.43,12.38,3.67-1.07,3.45-2.14,6.9-3.67,11.7,3.39-1.52,6-2.65,8.93-4-7,12.26-13.68,24.08-20.35,35.89,4.52,5.54,8,11.53,13.06,15.49,3.28,2.6,8.87,2.26,13.4,3.22.67.11,1.58-.11,2,.28,5.6,4.81,10.51,3.9,12.55-2.88,1.86-6.1,2.82-12.49,4.24-19.16.85,1.36,1.35,2.2,1.64,2.6,8.93-24.08,14.86-49.52,27.18-72.35.91.28,1.87.62,2.77,1-1.35,4.75-2.82,9.44-4,14.19-.51,2.14-1.41,5.08-.39,6.55,5.42,8.37,1.92,16.57.33,24.82-.39,2.32-1.46,5-.79,7,6.28,18.82-3.44,34-11.13,49.52-4.3,8.7-6.62,18.87-16.11,24.13-2.15,1.19-4.64,3.11-6.73,2.88-8.65-1.07-17.92-1.35-25.72-4.8-10.11-4.47-20.8-10.12-28-18.14-5.94-6.62-10.57-11.14-19.67-13.46-5.71-1.41-9.38-10.4-14.19-15.82-5.82-6.62-11.93-13-17.75-19.62a13.24,13.24,0,0,1-2.71-4.52,37.66,37.66,0,0,1-1.24-5.77c-3.17.8-7.07.68-9.44,2.55-4,3-7.18,5.65-13.17,1,4.57-1.36,7.4-2.26,11.64-3.56-3.11-2-4.8-3.11-6.78-4.41-.91,1.86-1.76,3.67-2.89,6.1-2.14-2.88-4-5.31-5.82-7.68l-8.08,7c-1.87-2.89-3.34-5.15-4.86-7.52,2.94-2,5.09-3.56,7.91-5.54Zm35.5,26.9c0,4.35.06,8.76-.23,13.11,0,.17-3.56.06-5.42.12v-13.57Zm-122.49,160.42c5.26-7.8,10.52-15.6,16.9-25.1,19.16-1,37.65,11,58.73,15q-16.7-47.73-33.23-95.12c.79-.29,1.58-.51,2.37-.8,6.16,14.47,12.32,29,19.16,45.05-3.73-24.3-7.23-46.8-10.74-69.86l6.5.34c2.6,8.2,5.09,16.11,7.58,24,.79-.17,1.58-.28,2.31-.45-1.75-9.38-3.56-18.77-5.37-28.15l1.53-.51q11.28,26,22.5,52.17c.45-.22,1-.45,1.47-.68l-1.7-11a6.24,6.24,0,0,0,1-.23c5,10.52,9.66,21.2,15,31.54,7.12,14,14.58,27.76,22.21,41.44a80.81,80.81,0,0,1,9,25.32c2.21,11.92,7.8,23.85,19.5,30.92,1.42.85,2.27,3.16,2.66,5,.17,1-1.47,3.28-1.92,3.17-2.09-.4-4.75-1-5.94-2.43-2.54-3.17-4.35-7-6.89-11.31-2.55,4.24-4.47,7.46-6.78,11.25,3.5,4.86,7.51,10.46,11.47,15.94a117.8,117.8,0,0,1-45.73-9c-27-11-55.11-19-82.86-28-2-.68-4.64.73-6.9.45-2.77-.28-6.72-.56-7.91-2.32s.17-5.54.51-9.15c-1.75-2-4.47-5.09-7.12-8.2C1781.75,1536.65,1782.66,1536.88,1783.56,1537.11Zm-40.92,77.15c10.17-4.24,20.23-8.65,29.5-12.66,9,3.34,16.17,7,23.8,8.59,17,3.62,27.08,16.34,38.1,27.59,10,10.23,16.9,22.49,19.33,37.13,1.86,11,4.41,22.16,8.59,32.5,6.16,15.38-1.07,27.53-8.87,38.55-7.86,11.19-20.3,17.52-35.1,21.76,1.35-2.94,2.14-4.52,3.1-6.61-1.64.23-3.39.45-5.08.74-.12-.34-.23-.68-.34-1,1.81-1,3.67-1.92,4.18-2.21-11-1.86-23.23-3.84-36.51-6,4.8,2.71,8.76,5,12.71,7.23-.33.79-.67,1.53-1,2.32-2.26-.62-4.75-.91-6.9-1.92-30.64-14.81-50.14-38.84-58.16-71.9-3.51-14.3-7.12-28.6-9.39-43.07-.67-4.52,2.44-9.9,4.53-14.59a85.65,85.65,0,0,1,8.08-14.64c1.19-1.75,4-2.6,6.22-3.28C1740.27,1612.45,1741.9,1614.54,1742.64,1614.26ZM1629.48,408.72c2.82-1.19,6.33-.85,12.21-1.41-4.07,4.52-6.22,7.68-9.22,9.72-1,.73-4-1.47-6.1-2.32C1627.33,412.62,1627.9,409.4,1629.48,408.72Zm-6.33,73.48c.22-1.69,2.48-3.11,3.73-4.69.9-1.19,2.71-2.94,2.43-3.56-7.91-15.26,6.22-26.06,8-39.4.85-6.16,4.58-12,7.64-17.69,1.35-2.54,4.35-4.18,8.36-7.75-3.16-2.71-6.95-6-10.91-9.15-3.62-2.88-6.05-5.71-1.69-10.12,2.2-2.15,3.73-5,5.54-7.52-2.94-1.3-5.83-2.54-9.39-4.07,1.3-2.77,2.32-5,3.62-7.8,2.71,1.58,4.92,2.83,8,4.52.4-2.31.73-4.07,1.19-6.55,12.49,4.75,21.76-.45,30.18-9.5,1.92-2.09,6.16-2.2,9.38-2.88.91-.17,2.1,1.07,3.17,1.7.17-1.53.39-3.06.56-4.58.17-1,.34-1.93.46-2.89.79-.28,1.52-.56,2.26-.84,1.81,2.93,5.2,6,5,8.81-.4,8.76,5.14,10.06,11.42,10.8,16.16,1.92,32.33,3.45,48.38,5.6,4.47.56,8.76,2.65,12.89,5.82-2.32.62-4.64,1.24-7.92,2.09,1.59,1.41,2,2.2,2.72,2.43,3,1,6,1.81,11,3.33-12.6,4.64-22.72,8.31-33,12,2.94,1,6.22,2,9.55,3.11v1.25c-19.61,0-39.17.34-58.78-.12-6.67-.17-10,1.92-12.21,8.26-3.62,10.17-8.42,19.89-12.49,29.39,11.3,2.32,21.81,4.58,32.38,6.78-.22,1-.45,2.09-.62,3.17-5-1.25-10-2.49-15-3.68-.17.57-.33,1.19-.56,1.75,9,3.73,17.92,7.41,26.85,11.14v3.28c-4,.56-8,1.13-11.19,1.52.62,3.06,1.86,6.62,2,10.24.06,1.35-2.2,3.73-3.67,3.95-3.73.62-7.63.23-13.57.23,5.66,2.49,9.11,4.07,14.36,6.38-15.71-1.24-29-2.31-42.45-3.44-3.22,6.61-7.18,12.26-8.59,18.48-1,4.13,1.75,9.1,2.88,13.68.23.85,1.36,1.64,1.25,2.32-1.42,8.19,1.07,10.68,9.1,9.72q40.27-4.66,80.6-8.93c4.24-.4,8.59.45,12.89.73,0,.79,0,1.64.11,2.43-8.14,1.36-16.28,2.77-23.17,4-1.36,2.77-2.43,4.86-4.19,8.31-3.39.9-8.59,1.87-13.56,3.56-4,1.41-8.88-.34-11.14,7-1,3.45-12,5-18.59,5.54-15.1,1.24-30.3,2.26-45.39,1.64-10.4-.45-18.54-6.16-21.88-17.24C1615.69,517,1620.77,499.61,1623.15,482.2ZM1734.84,734c-5.2,1.92-10.4,3.79-15.6,5.71-.34-.85-.62-1.7-.91-2.55,4.53-3.78,9.5-6.38,15.27-6.67C1734,731.64,1734.44,732.83,1734.84,734Zm-174.21,40.53c.79-12.44,7.75-22.56,10.85-34.09,3.23-12,7.86-23.57,11.48-35.44,3.73-12.15,6.78-24.47,10.29-36.68,5.54-19.33,11-38.67,16.84-57.88,1.19-3.79,2.15-9.22,11.42-6.11-2.49-3.61-4-5.71-5.37-7.91s-3-4.24-3.34-6.56c-.11-1,3.45-3.67,4.41-3.28,2,.79,3.28,3.17,5,4.81,3.39,3.22,6.44,7.12,10.4,9.27,5.59,3.11,13.39,17.46,11.08,25.38-9.44,32.27-19.34,64.43-29.45,96.54-1.81,5.71-5.66,10.8-7.58,14.41,4.13,2.55,7.69,5.32,11.76,7,2.77,1.13,6.22,1.08,9.33,1.08,16.61,0,33.18-.29,49.74-.29,1.92,0,3.84,1,5.76,3.17l-19.5,2.2q35.87,3.74,71.67,7.35c-.05.85-.05,1.7-.11,2.55h-15.77l-.34,2.6c3.34.5,6.67,1,10,1.52a32.26,32.26,0,0,1,10.74,3.28c-24.76,6.56-50.37,1.92-75.29,7.41h19c.11.79.22,1.63.34,2.43-3.73,1-7.41,2.48-11.19,2.77-22.11,1.35-44.15,2.26-66.25,3.73-9.55.62-19,2.43-28.66,2.88-2.32.11-4.8-2.88-7.86-4.92-1.18,1.36-2.76,3.17-4.35,5C1560.29,784,1560.29,780.14,1560.63,774.49Zm-29.16,108.18c.9-1.64,4.63-2,7.17-2.48,5.49-1.13,11.08-2,16.62-3,.28-1,.57-1.92.85-2.88-2.32-.85-4.58-1.64-7.24-2.6,2.44-2.77,3.28-4,4.3-4.86,17.18-14.3,37.93-19.05,59.29-22.67,17.81-3,34.88-4,52.74,1.53,10.74,3.27,23.23.39,34.59,2.31,15.89,2.6,31.43,7.07,46.92,11.82-11-1.08-22-2.15-33.07-3.28a12.61,12.61,0,0,0-.28,1.36c11.36,3.16,22.67,6.27,34.14,9.43-.06,1-.23,2.55-.45,5.6-8.42-.4-18.09-.9-27.81-1.36-.12.68-.23,1.3-.34,2,11.59,1.7,23.23,3.39,34.87,5.15.06.28.12.56.17.84-7,.57-14,1.08-22.61,1.76,3.06,1.58,4.47,2.26,6.79,3.5-11.53,4.75-20.13-.56-26.23-4.07-4.24,2-6.5,4-8.48,3.79-16.67-1.92-33.29-5.37-50-6-13.68-.57-27.53,1.75-41.21,3.28-6.89.79-12,3.79-12.09,12.26-.06,5.2-1.81,10.46-2.66,14.93h56.41c0-.51.06-1.08.06-1.64-3.17-1.08-6.28-2.09-8.43-2.83,4.7-1.41,10-3.33,15.38-4.52,1.81-.34,4,1.36,6.05,2.09-1.08,1.53-1.81,3.5-3.23,4.35s-3.33.51-5.36.68c.79,3.73,1.58,7.07,1.8,8.31,5.15,2.49,9.39,3.5,12.1,6.1,2.94,2.89,4.52,7.3,6.9,11.37-2.43.11-5.2.28-8,.45-.12.34-.23.68-.34,1.07,5.48,2,11,4.07,16.5,6.11a8.1,8.1,0,0,1-.28,1.13L1674.3,939c1,3.67,3.45,9.89,2.43,10.51-4.12,2.6-10.4,6.1-13.9,4.64-20.46-8.48-38.61,6.16-58.11,4.8-2-.17-4.13.57-6.22.51-8-.23-16.67,5.88-18.54,13.9-4.07,17.64-7.91,35.33-11.75,53-1.47,6.9-7.07,10.12-13.57,6.95-1.36,2.15-2.66,4.3-4,6.39-3.68-4.29-7.35-8.59-11-12.83-.91.68-1.81,1.36-2.77,2a29.65,29.65,0,0,1,3.27,4.4c.57,1.19,1,3,.46,4a4.06,4.06,0,0,1-3.51,1.75c-1-.16-2.26-2-2.26-3-.17-10.46-.85-21,.11-31.37,1.25-12.55,3.79-25,6-37.42,1-5.48,5.82-11-.62-16.16a3.3,3.3,0,0,1,1-2.21c6.38-4.41,1.35-7-2.55-10.17,8.54-12.78,23.8-22.05,20.18-40.76-11,.06-.45-9.1-5.76-14.3-3.62,2-7.63,4.81-12.1,6.5-2.49,1-6.33,1.3-8.36.06C1531.24,889.17,1530.5,884.59,1531.47,882.67ZM1495,1408.4c.91,1.36,1.81,2.77,2.71,4.13-3.56,2.37-7.12,4.86-10.85,7-.28,0-2.15-2.71-3.22-4.13Zm-13.34,100.44c1.3-5.08.34-10.68.91-15.94.5-4.24,1.86-8.36,3.27-14.63,1.7,3,2.27,4,2.83,5-5.93-25.1,8-45.68,15.37-67.72.46-1.41,3.23-2,4.58-2.83-.67-2.82-1.41-5.76-2.14-8.7-13.06-3.9-13.12-4.07-4.19-20-2.94-1.13-5.88-2.2-8.7-3.28,2.09-9.61,6-11.59,16.28-8.53,4.63,1.35,18.71-5.66,22.38-10.29,3-3.79,5.37-11.93,12.72-4.35.39.45,3.5-.63,3.5-1a38.75,38.75,0,0,0-1-6.45c5.93-.62,8.47,2.89,8,7.69-.62,7.58,4,8.82,9.5,9.27,17.35,1.36,34.7,2.43,52,4,4.18.4,8.2,2.21,14.3,3.91-5.88,1.81-9.38,2.88-13.62,4.12,6.27,1.47,11.87,2.77,18.54,4.3-11.42,4.69-22.72,9.32-33.58,13.73,2.66.79,6.16,1.81,11.36,3.28-21.87,1.41-41.94,2.94-62,3.85-5.37.22-7.69,2.14-9.39,7-3.5,10.63-7.68,21-12,32.45,12.32.68,24.65-1,36,8.7l-19.22-5.25c-.23.73-.45,1.47-.68,2.2q14.32,5.34,28.77,10.68v3.06c-4.18.62-8.36,1.24-11.25,1.64.85,3.67,2.77,8,2.21,12-.17,1.41-6.45,2-11,3.28,2.43,2,4.58,3.9,7,5.88-13.73-.57-27-1.19-41.09-1.81-3.11,8.19-6.1,16-9.1,23.79,1,.34,1.92.62,2.88,1l1.25-7.06c.39.28.9.45.9.68-.11,3.84-.28,7.74-.51,12-.17,1.81-.34,3.84-.62,5.88-.51,4.74,5.65,9.38,11.19,8.47,27-4.46,54.1-9,81.17-13.22a23.3,23.3,0,0,1,12.61,1.58c-10.12,3.62-20.24,7.24-32,11.42,3.68.39,5.6.62,7.46.85.12.39.23.84.34,1.24-3.33,1.19-6.84,1.92-9.94,3.56-5.49,2.88-13.06.4-16.74,9.44-1.63,4-12,5.2-18.59,6.27a195.37,195.37,0,0,1-28.15,2.49c-8.48.17-17.3.34-25.32-1.81-4.81-1.3-10-6.27-12.33-10.91C1481.16,1530.21,1478.73,1519.87,1481.61,1508.84Zm-45.56,156.46c7.63-.9,13.51-7.85,16-16.39,1.13-4.07.9-11.3,9-6.89.51-2.38,1-4.75,1.86-8.77,2.21,1.59,5.88,2.89,6.95,5.32,2.32,5.25,5.15,5.88,10.18,4.12,9.33-3.33,18.82-6.27,28.37-9,9.1-2.61,18.37-4.7,27.59-7,.68,1.24,1.3,2.43,2,3.67l-6,1c.62.9,1.24,1.75,1.92,2.6,3.45-.17,7-.4,8.25-.45-4.41,6.84-9.38,14.47-14.41,22.15.56.06,1.24.17,1.92.29a26.6,26.6,0,0,1-2.6,1.75c-14.7,7-29.28,14.07-44.09,20.69-4.41,2-6.27,4.07-6,9.21.51,10.12.11,20.23.11,32.5,15.72-9.1,29.57-10.51,44.26.11-2.94,1.7-6,3.56-8,4.7,2.32,3.27,4.7,6.67,7.64,10.79-4.13,1.58-6.9,2.66-11.54,4.41,4,1.58,6.34,2.49,8.77,3.45l-33.41,11.76c-2.32,8.81-1.7,17.29,3,25.26,1.86,3.17,3.11,6.84,5.54,9.44,3.67,3.9,7.34,2.37,11.75-.34,21.2-12.94,42.62-25.43,64.1-38,2.49-1.42,5.6-1.87,8.42-2.83.29.68.57,1.36.91,2-3.34,2.2-7.18,3.9-9.84,6.72-2.88,3-4.35,7.29-6.95,10.63a88.51,88.51,0,0,1-8.08,8.48c-3.51,3.39-7.86,5-8.76,11.7-.63,4.35-7.86,8.48-12.89,11.36-8.59,4.86-17.75,8.7-26.68,13-4.47,2.15-8.71,5.6-13.4,6.33-14.52,2.21-27.64-8.42-32.33-25-1.64-5.65-3.79-11.19-4.92-16.9-1-5.37-1-11-1.58-18.6-11.36-7.23-3.56-21.7-6.27-33.46-1.81-7.68.67-16.22.79-24.42,0-2.37-1.47-4.74-2.32-7.12-12.15,1.41-11.87,1.36-11.87-10.12,0-2.26-4.13-4.46-8.2-8.59C1425.54,1670.9,1426.61,1666.43,1436.05,1665.3Zm4.24,39q-4,4.66-8,9.32c-1.13-1.07-3.28-2.82-3.28-3.11,2.38-3.27,5.09-6.38,7.75-9.49C1437.92,1702,1439.11,1703.12,1440.29,1704.25Zm-102.36-3.45c2.32,4.07,4.46,7.86,6.78,12-8.25,3.56-11.47-.68-14.24-7C1332.73,1704.3,1334.82,1702.89,1337.93,1700.8ZM1266.59,1720l-6.61,4.92c1.36-4.92,14.25-15.55,20.29-15.66,7-.17,14.13.68,21.2,1,7.63.39,15.32.28,22.89,1.3,4.47.62,9.33,2.09,8.2,9.15-.34,2,2.6,4.86,4.46,7,2.94,3.34,6.16,6.39,9.27,9.61-.51.63-1,1.25-1.47,1.87l-7.51-1.07a10.2,10.2,0,0,1-.17,2.14c-1.25,4.24-2.66,8.42-4,12.66-5.82-2.2-11,6.51-17.3.68a69.07,69.07,0,0,0-12.71-8.93c-7.86-4.46-13.12-2.09-13,6.5.23,11,.79,22.33,3.62,32.79,5.59,20.46,12,40.75,26.23,57.37,4.4,5.14,7.91,5.65,11.36-.85,5.14-9.61,11.75-18.6,15.49-28.71,7.17-19.62,25.94-31.37,33.68-50.65-1,3.56-2,7.07-3.61,12.66,5.54-6.61,9.77-11.7,14-16.73.9.57,1.81,1.08,2.71,1.64-3.45,8.59-6.9,17.18-10.57,26.28,2.26-.28,4.35-.51,6.5-.79-.23,2.72-.45,5.43-.62,8.14-1.08,22.61-16.85,40.53-19.73,63.08-1.41,11.08-10.23,22.61-27,25.27,4.07.9,5.71,1.24,7.35,1.64,0,.68.11,1.35.17,2.09-8.88.62-18.82,4.13-26.46,1.36-26.51-9.56-40.07-32-50.19-56.87,1.7,2.6,3.45,5.2,3.9,5.94-5.37-17.52-12.77-36.69-17-56.58C1255.86,1758.74,1250.65,1738.05,1266.59,1720Zm2.83,271.88c7.91,1.41,17.13,1.13,24.59-1.64,22.78-8.42,45.61-17.35,67.32-28.21,21.25-10.62,41.15-23.91,61.72-36,26.46-15.54,53.36-30.35,79.25-46.68a253.76,253.76,0,0,0,57.82-50.71c17.07-20.12,33.8-40.52,50.76-60.7,5.71-6.79,11.82-13.17,19.45-18.49-6.11,10.07-12,20.24-18.32,30.07-8.93,13.85-18.14,27.47-27.3,41.21a59.82,59.82,0,0,0-10,33.91,335.44,335.44,0,0,1-1.07,33.69c-.85-9.66-1.58-19.33-2.77-28.94-.28-2.65-1.64-7.06-3-7.29-3.44-.51-8-.11-10.57,1.87-11.53,9-21.93,19.61-33.85,28-22.61,15.88-45.34,31.82-69.25,45.61-35.72,20.69-72.06,40.41-109,58.73-21,10.34-43.69,17.52-66,25.09-9.67,3.34-16.11,7.81-18.77,18.15-4.52,17.63-10.34,34.82-14.81,52.45-3.61,14.08-5.87,28.49-8.93,42.74-1.58,7.34-4,14.58-5.25,22-.91,5.09,2.26,7.07,7.18,9.1,18,7.35,36.06,14.59,53,24,19.56,10.85,38.15,23.62,56.69,36.17,11.82,8,22.67,17.35,34.26,25.72,4.69,3.33,10.11,5.65,15.09,8.65a40.59,40.59,0,0,1,7.8,5.54c11.08,11.47,22,23.06,32.89,34.65,28.1,30.07,55.85,60.48,77.22,95.75,13.5,22.27,24.24,46.18,36.11,69.47,2.83,5.54,5.2,11.3,7.8,17-.79.4-1.63.85-2.43,1.25-2.65-4.53-5.37-9.05-8-13.62-17-29.85-32.5-60.71-51.5-89.26-15.93-24-34.87-46.23-54.31-67.66-29-31.82-64.16-55.79-102.09-75.91-21.53-11.47-42.28-24.47-64.15-35.16-15.83-7.74-32.84-14.07-50.76-14.75-6.1-.22-12.89,3.39-18.54,6.62-9.21,5.36-17.75,11.87-27.7,16.73,5.26-6.5,10.35-13.23,15.77-19.56,14.42-16.85,22.33-36.85,28-57.66,6.78-24.58,12-49.57,18.26-74.27,2.31-9.27,5.42-18.43,8.64-27.41,5.43-15,6.28-28.55-8.3-39.68-5-3.79-8-10.18-11.87-15.32C1242.63,1977.31,1253.42,1989,1269.42,1991.9Zm118.08,544.38c-.85,2.32-3.11,4.18-5.65,7.23-2.15-2.71-4.75-5.36-4.47-5.76,1.75-2.26,4.18-4,6.39-5.94C1385.13,2533.34,1387.84,2535.38,1387.5,2536.28Zm-166.69-70.83c1.07-.28,2.32.12,6,.34,2.15-.17,7-1.35,11.36-.5,3.39.62,6.33,3.9,9.44,6-1.92,2.6-3.39,6.5-6,7.52s-6.45-.57-9.72-1.36c-3.45-.85-6.84-2.26-10.35-3.05-2.49-.57-5.37.05-7.57-1-1-.46-1.64-4.81-1-5.21C1215.27,2466.75,1218.1,2466.13,1220.81,2465.45Zm-.23-12.83c1.7-3.22,3.4-6.44,5-9.66,1.64.73,3.28,1.41,4.92,2.09-.9,3.67-1.81,7.35-2.71,11C1225.45,2454.89,1223,2453.75,1220.58,2452.62ZM1191.76,2281c-.46.34-1,1-1.36.91-5.09-1.08-11,8.59-14.41,1-2.94-6.56-1.64-15-2.21-22.56C1190.51,2269.77,1192.15,2272.14,1191.76,2281Zm7.18-417.09c3,6.44,6,5.94,10.73,2.37,7.58-5.7,15.32-11.13,23.8-17.29,5.2,9.83-6,12-5.76,19.78l11.92-10c.29.23.57.4.91.63-7.8,10.45-15.55,20.85-23.8,32,7.12,8.82,14.53,17.52,21.37,26.79,2.14,2.94,2.77,7.12,3.78,10.85.68,2.72.85,5.54,1.53,10a13.06,13.06,0,0,1-3.73.17,118.23,118.23,0,0,1-14.24-2.77c-2.89-.85-6.11-2.09-8-4.24-6.56-7.18-12.61-14.81-18.88-22.27-6.61,6.78-13,13.06-19,19.67-1,1.19-1,3.85-.51,5.6a52.48,52.48,0,0,0,4.07,11.7c4.58,8.48,5.65,16.9,1.52,24.92-3-.73-5.82-1.41-8.64-2.14-.46.79-.91,1.58-1.42,2.37-.9-2.49-1.86-5-3.73-10v15.49c-13.56-15.83-20.18-33.46-23.51-53.3-2.71-16.51-9.55-32.28-13.4-48.61-3.73-15.77-6.16-31.82-8.76-47.88-2.6-15.71-4.63-31.54-6.84-47.36a7.14,7.14,0,0,1,1.47-5.71c.57,2.2,1.08,4.41,1.64,6.61.85.17,1.75.34,2.6.45,1.36-5.09,2.6-10.23,4.18-15.26.57-1.75,2.1-3.16,3.4-5.09,1.18,1.42,1.52,1.59,1.58,1.81,1.19,8,2.43,9.5,8.59,13.23a27.73,27.73,0,0,1,7.46,7.06c9.27,3.62,15.21,10.8,19.61,19.45C1179,1823.17,1189.27,1843.41,1198.94,1863.87Zm-63.59,123.68c3.1,7.8-2.26,12.88-4.36,19.1-2.43,7.07-2.77,15-6,21.59-4.12,8.37-10.12,15.83-15.6,23.46a120.08,120.08,0,0,1-9.49,11.25c-8.77,9.49-17.07,12.43-28.83,7.4-15-6.38-23-20.06-33.41-31.2-1.52-1.69-1.07-5.25-1.81-9.21-6.5-2.43-12.15-5.32-14.52-14.19-2.32-8.53-9-15.83-13.12-24-2.2-4.35-3.22-9.26-5.48-16a85.69,85.69,0,0,0-9.21,1.47c-5,1.19-8.82,1.24-9.1-5.49-.12-1.92-1.19-3.78-2-6.5-4.63,1.87-10.23,5.66-10.23-4,2.21-1,4.81-2,9.05-3.67-3.57-.74-5.54-1.13-7.52-1.53-.23-.51-.4-1.07-.62-1.58,2.26-.85,5.48-1.08,6.61-2.71,4.46-6.5,8.93-13,6.67-21.94-1-3.84-3.34-10.06,5.2-9.83.62,0,1.36-2.26,2-3.45-1.64-.68-3.33-1.41-5.7-2.43,6.72-5.6,10.51-.9,15.37,3.84q24.93-21.87,49.74-43.58c.85.74,1.7,1.47,2.54,2.27-.84,1.75-1.64,3.5-2.93,6.33,4.06-1.47,7.06-2.6,11.3-4.19-3.45,9.61-6.44,18-9.5,26.34.85-.05,2.32-.11,5.37-.22-11.53,13.79-22,26.73-33,39.28-3.33,3.79-3.61,6.39-1.13,10.74,4.86,8.76,8.88,17.92,14,28.38,9.5-13.12,21-21.14,38.89-17.19-1.13,2.21-2.77,5.26-4.18,8,2.88,1.53,6.73,3.62,11.47,6.16-3.39,3.17-5.42,5.09-8.53,8h9.1c-8.54,8.42-17.13,16.9-26.74,26.45,4.36,6.22,8.31,12.83,13.29,18.66,2.88,3.33,7.18,6.84,11.25,7.4,3,.4,7.8-2.94,9.89-5.93,14.47-20.24,28.32-40.81,42.56-61.22,1.53-2.2,4-3.79,5.93-5.65l1.81,1.47c-1.92,3.11-4.07,6.1-5.71,9.32C1137.15,1981.61,1134.5,1985.4,1135.35,1987.55Zm-136.79-2.32c-.57,3.84-1.13,7.74-1.7,11.59l-5.42-.85c1-3.85,1.92-7.69,2.88-11.59Zm5.42-214.51c17.64-11.76,36-21.76,57.43-25a66.09,66.09,0,0,1-6.72,3.73C1038,1756.87,1021.17,1764.28,1004,1770.72Zm162.45-314.5,1.7,1.87c-2.26,2.31-4.47,4.69-6.67,7,6.56,2.21,14.41-9.26,20.63,1.53-9.16,4.07-18.09,8.08-27,12.1.34.73.68,1.52,1,2.32l25.15-5.43c.34.56.63,1.07.91,1.58-9.05,3.45-18.2,6.61-27.08,10.4-9.1,3.84-18,8.25-28.15,13,2.77,17.58,5.54,35.84,8.71,54.1,1,5.59-4.47,13.79-10.29,14.46,3.28,10.75,3.28,10.75-.56,11.76-7-6.16-12.67-11.76-19-16.39-4.12-3-7.51-5.26-8.19-11.19-1.75-14.64-4.64-29.11-7.35-45.5-9,3.67-17.24,7.23-25.66,10.23-3,1.13-6.9.28-9.78,1.64-3.28,1.47-7.52,3.9-8.48,6.84-2.49,7.51-3.5,15.48-4.8,23.4-1.53,9-.74,19-12.21,23.06-1.76.62-2.38,4.3-4.41,8.25-1.7-6-2.94-10.23-5.09-17.8-1.75,4.35-2.77,7-3.84,9.66l-3.22-2,2.88-12.38c-.79-.45-1.58-.91-2.43-1.36-3.34,6.05-6.73,12-10.06,18l-1.53-.34a56.37,56.37,0,0,0,1.36-7.85c.28-4.36,1.81-9.84-.17-13-4.92-7.74-2.43-15-.4-22,6.73-23.63,14.42-47,21.09-70.66,4.57-16.39,7.8-33.12,12.2-49.51a274.88,274.88,0,0,1,10.57-31.88c12.16-30.13,24.76-60,37.37-90,2-4.74,4.63-9.21,7-13.79.73.45,1.41.91,2.14,1.42-1.92,4.12-3.78,8.19-5.82,12.6,6.84-2.77,13.06-5.31,19.9-8.14.85-2.26,1.35-5.71,3.22-8.2,1.36-1.75,4.52-2.14,6.9-3.16,0,2.32.45,4.75-.23,6.84s-3.17,3.79-3.73,5.93c-.57,2,.11,4.52.9,6.5.17.46,3.28-.34,5.77-.62-.79,2.38-1.53,4.69-2.21,6.78,2.55,1.93,5,3.74,7.47,5.6-1.64,4.13-3.06,7.63-4.47,11.08l2.6-.51c2,4.24,4.13,8.42,5.94,12.77,6.33,14.87,3.16,29.74,1.41,45.11-2.83,24.19-2.94,48.67-4.24,73-.06,1.75.06,3.56-.17,5.31-1.92,16.17-.9,17.13,14.64,13.46C1149.25,1460.12,1157.84,1458.2,1166.43,1456.22ZM912.92,622.44c-1,1.52-4.8,2.6-6.72,1.92s-3.73-3.73-3.79-5.77c0-1.86,2.15-4.35,4-5.42,3.22-1.93,7-2.94,10.4-4.36.56.51,1.13,1,1.64,1.53C916.66,614.41,915.36,618.82,912.92,622.44Zm17.47,104.4c-1.36-8.14-5.82-16.28.85-26.63.73,5.94,1.19,9.95,1.81,15,3.16-13-2.38-22.1-8.93-31.15a9.9,9.9,0,0,1-1.76-6.27c.74-8.65,2.1-17.24,2.94-25.89,1.25-12.26,2.15-24.59,3.39-36.91.17-2,1.36-3.9,4.13-5.37-.9,8.14-1.81,16.22-2.71,24.36.79,0,1.52.06,2.26.06.39-12.15,8.65-24.64-5.09-36.29l2.55-.85h-7.75c-11.08,0-13.34-3.44-9.33-13.5,1.36-3.45,2-7.18,2.94-10.75-14.92.4-15.2.12-11.64-11.58a61.06,61.06,0,0,0,6.16,1.81c2.21.39,4.52.34,6.78.51-1.07-3.62-2.14-7.47-3.73-12.84,3.73,2.6,5.83,4.07,7.35,5.15,2.83-1.36,4.92-2.77,7.29-3.39,9.73-2.66,14.25-10.4,18.32-18.54,1.41-2.77,2.26-5.88,3.67-8.65,2.21-4.24,7.29-4.18,11.42-.11,2-1.3,4-2.66,6.27-4.13-2.14-1.92-4.41-3.9-6.89-6.16,8-2.6,13.39-.4,14,6.78.9,10.35,8.13,9.72,14.3,8.54,19-3.68,37.87-9,57-12.21,9.67-1.64,20-5.66,30.47,0-5.77,3.06-10.85,5.77-16.73,8.93h26.56c-14.35,10.46-27.18,19.79-39.28,28.55,4.69-.28,10.85-.68,17.07-1.08a3.67,3.67,0,0,1,.11.8c-25.55,8.64-51,17.63-76.7,25.77-7.8,2.43-11,5.94-10.91,14.3.06,10.23-1.75,20.52-2.66,30.81-.39,4.58-.62,9.21-1,15,16.34-4.7,31.54-10.57,47.2-1.76H993.47c-.06.91-.06,1.81-.11,2.77,14.24,1,28.49,2,42.84,3-1.52,7.06-1.52,7.06-15.31,9.84.39,1.07.84,2.88,1.13,2.88,8.25-1,7.46,6.1,8.76,10.57,1,3.28,1,7.06-5.15,5.82-2.65-.51-5.88,2.15-8.87,3.39.34.74.68,1.47,1,2.21,3.67,1,7.29,1.92,11.7,3.1-18.43,4.13-35.67,8-54,12-.4,5.6-.73,11.59-1.19,19-1.86-2.37-3-3.84-4.91-6.33,3.78,12.32-.46,27.08,14.8,32.73-.45.68-2.48,2.43-2.26,3.73,1.19,6.5,9,10.06,15.49,7.46.57-.17,1-.68,1.47-1,12.61-6.22,25-12.83,37.76-18.6,19.78-9,39.74-17.52,59.8-25.83,5.94-2.49,12.38-3.56,18.6-5.31.39,1,.73,2.09,1.13,3.11q-15.78,7.71-31.54,15.54c.22.51.45,1.08.68,1.58,2.54-.9,5-1.75,7.57-2.6a10.68,10.68,0,0,1,.62,1.42c-5.76,3.11-11.59,6.21-17.41,9.32a3.16,3.16,0,0,1,.23.79c4.12-1.13,8.25-2.31,12.38-3.44.28.56.51,1.13.79,1.69-10.91,7.07-21.82,14.19-33.8,21.93,3.11,1.19,4.41,1.64,7.74,2.89-11,6.78-20.29,14.13-30.75,18.59-11.59,4.92-24.3,7-36.34,10.86-4.07,1.3-7.35,5.14-11.42,6.27-12.61,3.5-28.26,1.3-37.53-11.14C935.87,762.33,933.39,744.64,930.39,726.84Zm76.31,171.72c-4.13,2.37-7.41,4.24-10.69,6.1-.33-2-1.58-4.46-.84-6C997.09,894.15,1000.42,892.62,1006.7,898.56ZM963.63,1034.1c-7.41-25.72-13.57-51.78-19.67-77.78-1.7-7.29-1.3-15-1.87-22.49,1.3-.29,2.6-.57,3.9-.8,1.24,4.92,2.54,9.9,4.18,16.34,1.42-6.67,2.94-11.64,3.51-16.67.68-6.28-.57-11.59-9.16-11.31,2.83-.56,5.65-1.19,8.48-1.75l-1.7-1.36c2.77-3.5,5.09-9.38,8.37-9.95,9.55-1.64,5.6,8.14,8.7,12.61,2.55-8.14,3.17-17.3,14.08-23-1.13,15,9.1,18.48,19,22.21a4.51,4.51,0,0,0,.73-1.52c.23-3.39.34-6.73.45-10.12,2.66,2.83,6.79,5.31,7.58,8.54,2.43,10.28,3.28,21,5.31,31.37,2.55,13,5.77,25.94,8.59,38.94,4.81,22.1,9.61,44.26,14.25,66.42.39,1.69-.45,3.67,0,5.71,17.18-47.2,39.79-91.63,64.77-134.87.91.17,1.76.28,2.6.45-1.52,10-3,19.84-4.69,30.64,9.16-16,17.75-31,26.34-46.13.91.51,1.81,1,2.72,1.42q-9.84,25.86-19.73,51.72a12.24,12.24,0,0,0,1.47.62c6-11.19,12-22.44,18.54-34.65.9,2.32,1.3,3.28,1.75,4.58,1.58-1.7,3-3.22,4.47-4.75l2.2.68c-5.09,13.11-17.86,25.09-8.31,42.56-27.41,60.88-45,127.18-63.42,194.1-1.41-.45-4-1.18-4.8-1.41-5.77,3.56-10.4,6.44-16.06,10,1.19,2.2,3,5.76,5.43,10.46-1.92,2-4.3,4.69-6.73,7.34-2.43-4.18-4.91-8.42-7.57-13-5.26,5.66-10.91,5.94-16.56-1.52-1.13-1.53-4.52-1.3-6.45-1.81-3.67-6.5-7.91-12.72-10.79-19.44-4.24-10-7.8-20.18-11.14-30.47C982.62,1095.43,972.5,1064.91,963.63,1034.1ZM888.85,2101.55a8.53,8.53,0,0,0,.67-6c-3.95-14.3,4.75-24.82,10.4-36.35,5.83-11.87,15.21-19.89,25-28.66,11.42-10.28,21.82-11,32.9-5.37,9.1,4.58,17.07,12.27,24.08,19.9,14.13,15.43,15.71,35.22,15.83,54.83.05,7.12-2.6,14.24-4,21.31,7,5.71,13.45,11.81,20.63,16.79,9.67,6.55,19.84,12.49,30,18.25,2,1.13,5,.12,7.4.62a49.16,49.16,0,0,1,9.39,3c.62.28.79,3.67.45,3.84a88.41,88.41,0,0,1-9.38,2.6c6.78,5,19.44-2.6,22.78,10.46-6.17-.79-11.71-1.53-18.88-2.43,2.26,5.09,3.33,7.41,5.31,11.87-3.51-2.09-5.2-3.11-6.9-4.13-6.33,8.6-13.39,10.57-24.92,4.58-12.55-6.55-24.42-14.47-36.41-22-2-1.25-3-4-5.31-7.35-3.33,5.77-6.44,11-9.49,16.28,3.84-12.49-4.41-10.18-11.37-9.67-1.69,5-3.44,10.06-5.2,15.15-2.77-11.3-8.42-22.1-2.54-33.63.68-1.47-.06-4.92-1.36-5.88-9.61-7.57-19.5-14.75-29.39-22-4.92,4.24-9.78,8.7-15.09,12.55-1.24,1-4.58.5-6-.57-7-5-7.29-5.14-12,2.83-4.35-2.32-4.41-5,.23-11.31-2.66-.9-5.09-1.69-8.37-2.82,2.94-1.7,5.37-3.17,9.56-5.54C884.38,2113.88,883.93,2109.3,888.85,2101.55ZM869,2088.5c2.26,2,6.33,4.07,6.27,6-.06,2.6-3,5.65-5.48,7.29-.79.51-4.13-2.88-7.69-5.54C865.27,2092.68,867.14,2090.59,869,2088.5Zm136.78,456.37q-23.56-1.53-47.14-2.94c.06-1.18.17-2.31.23-3.5l47.14,3.9C1006,2543.18,1005.91,2544,1005.79,2544.87Zm19.67,1.92c-4.57.12-9.21-.9-13.84-1.41,0-.9-.06-1.75-.06-2.6h22.61c0-1,0-2,0-2.94q-36.71-3.9-73.42-7.74c-13.17,8.59-25.72,1.86-37.31-3.06-13.17-5.53-26.11-12.54-37.3-21.31-6.9-5.42-11.87-14.69-15-23.23s-2.71-18.08-3.56-27.18c-.17-1.36,1.19-2.83,1.86-4.24,1.47,1.07,3.73,1.86,4.19,3.22,1,2.71,1,5.82,1.24,8.76.23,3.84.45,7.69.4,11.53-.12,13.51,13.67,26.17,25.77,30.3-4-4.92-7-8.25-9.55-11.87-2-2.83-4.58-5.94-4.92-9.16-.45-3.84-1.3-6.67-4.41-9a7.06,7.06,0,0,1-2-3.84c-3.28-12.49-9.16-25.1-9-37.53.34-23.29,4.35-46.41,17.75-68.45,1,3.61,1.69,6.16,2.32,8.65,7-12.78,13.79-25.72,21.14-38.33,1.69-3,5.59-4.63,8.14-7.29,8.13-8.59,15.71-17.75,24.24-25.94,5.54-5.37,12.38-9.39,17.47-15.61-21.48,10.18-40,24.25-56.92,41.44,1.47-2.77,2.32-6.33,4.58-8.2,16.84-13.9,32.67-29.79,51.32-40.75,45-26.46,93.89-38.83,146.12-27.13,26.22,5.93,48,21,66.19,41a3,3,0,0,1,.56.67c4.35,8.26,8.71,16.45,13.34,25.27-1,1.24-3.16,3.34-4.46,5.94-2.55,5-3.11,9.49.73,15.09,5.14,7.51,8.31,16.45,11.47,23.12-3.67-1.93-9.83-4.36-15.09-8.09-4.74-3.45-5.93-11-14.13-14.3,1.47,4.58,2.21,6.9,3,9.55-2.77,1.08-5.14,2-8.47,3.34,1-3,1.63-5,2.09-6.39-4.07,1-8.31,2-13.57,3.34,3,1.24,5.26,2.15,7.52,3.05a7.91,7.91,0,0,1,.06,1.19c-2.94,0-6.34,1-8.77-.17-11.81-5.6-22.94-10.8-30.91-23.35s-23.69-16.28-38.84-14.64c-24.64,2.6-49.06,6.33-70.54,20.58-6.84,4.58-15.2,6.84-23.91,8.93,6.67-4.75,13.06-10,20.12-14.08s14.81-7.12,22.39-10.4c7.74-3.44,15.66-6.55,23-11.64-7.29,1.41-14.69,2.32-21.81,4.41-20,5.93-39,13.85-54.78,28.09-7.91,7.12-17.52,12.44-25.09,19.84-14.3,14-28.49,28.49-27.76,50.82.06.67-.62,1.35-1.92,3.73-1-4.19-1.64-6.79-2.26-9.33-6.67,10.23-6.1,20.4,1.08,29.85a88.87,88.87,0,0,1,8.42,13.39c4.35,8.37,9.1,11.81,21.76,14.87.73-3.39,1.52-6.79,2.26-10.18,8.76,25.72,33.12,19.28,50,27.19-.17.11-.4.34-.68.51-.68.51-1.41,1-2,3.33,6.11,0,12.21-.22,18.32.12,3.05.17,6.05,1.81,9.1,2,15.65.67,31.31,1.8,46.91,1.3,6.28-.23,12.32-4.41,18.83-6.9-11.37-8.93-25.44-12.21-39.8-14.75-5.82-1-12.09-1.08-12.89-9.16-2.82,2.15-5.2,5.37-7.91,5.65-2.32.23-5-2.82-7.57-4.41v-3.61c6.78-1.81,13.56-3.68,20.18-5.49-7.52-5.71-16.28-9.38-26.91-6.67-3.79,1-8.87,3.06-9.66-3.22-.4-3.33,1.86-7.06,3.1-11.42v-17.07c-8.87,2.55-18.31,5.2-27.81,7.92l-1.86-.85c2.49-2.88,4.46-6.39,7.46-8.42,3.62-2.49,8.14-3.56,12.1-5.54a12,12,0,0,0,4.46-3.9c2.49-4,3.56-10.63,7-12a65.52,65.52,0,0,1,24.65-5.32c28,0,51.66,14.59,76.7,24.42,7.12,2.83,13.51,7.29,20.24,11.08,1.3.68,2.82,2.32,3.78,2.09,16.9-4.41,24.42,10.57,36,17.13,5.71,3.28,10.12,8,18.26,4.63,5.82-2.43,11.19,1.19,13.28,9.73-3.5-.23-6-.74-8.36-.51-1.7.17-3.34,1.35-5,2.09,1,1.64,1.64,3.56,2.94,4.86,3.34,3.17,7.75,5.54,10.18,9.21,2.82,4.24,7.52,10.4-3,12.1-.91.17-1.19,3.05-2.15,4.41-2,2.88-4.35,5.59-7.46,9.49-.34,3.62-.85,9.1-1.42,14.93-3.05-.79-6.21-1.64-10.4-2.77.74,6.21,1.42,11.81,2.26,18.88-4.8-.8-8.81-1.47-14-2.38-11.59,13.4-29.57,15.89-47.09,17.19C1087.7,2545.44,1056.55,2545.83,1025.46,2546.79Zm166.81-173.19v12.83c-19.28-2.71-19.62-3.27-17.3-27.86C1180.79,2363.6,1185.94,2368.12,1192.27,2373.6Zm163.29,215.53c-6.21,9.72-12.88,19.1-18.82,28.94-5.31,8.93-9.61,18.48-14.92,27.47-10.91,18.54-22.1,37-33.29,55.39-2.55,4.19-5.49,8.14-7.92,12.44-3.67,6.61.45,10.29,5.94,11.87,11.92,3.39,24.08,5.93,36.12,9.1,1.8.51,3.27,2.54,4.91,3.9-1.86,1-3.78,2.88-5.54,2.77-4.63-.4-9.21-1.64-15.6-2.83,10.52,8.93,23.18,5.83,34.37,11-2,.68-3.22,1.08-4.69,1.53,1.19,1.7,2.26,3.34,3.62,5.26-14.19-.79-27.47-1.64-40.81-2.43-.12,1.07-.23,2.09-.34,3.11l36.06,9.32c-13.06,4.24-25.32-1.92-37.82-2.14s-24.81-1.14-38.21-1.76c-3.9,11.42-8.3,23.63-12.32,35.95-3.39,10.35-6.38,20.86-9.55,31.26-1.87,6.1-13.62,11.36-19.39,8.08-.39,2.38-.73,4.52-1.07,6.67-.4,2.32-.74,4.58-1.19,7.41-2.88-.17-5.43-.29-9.38-.57,1.3-4.07,2.32-7.29,3.45-10.91a15.16,15.16,0,0,1-1.64-1c-1.08-.74-3.11-1.81-3-2.21,3.79-11.93-13.56-16.9-9.33-29.28,6.34-18.43,11.82-37.14,18.32-57.65-11.76-1.13-23.29-2-34.76-3.45-4-.57-7.75-3.56-11.7-3.79-4.41-.22-10.57-.05-13.12,2.66-7.12,7.4-12.43,16.45-19,24.36a168.24,168.24,0,0,1-17.29,17.52c-1.7,1.47-5.2.91-8.26-.56-2.88,2.31-5.76,4.58-10.68,8.53,1.7-8.53,2.88-14.52,4.24-21.31-3.5,1.81-6.39,3.34-9.27,4.81l-2.2-1.87c3.39-4.24,6.78-8.53,10.17-12.77-.34-.79-.73-1.58-1.07-2.43-3.9,1.86-8.14,3.33-11.65,5.76-3.73,2.49-6.78,6-10.11,9.05-.74-.57-1.42-1.13-2.1-1.7,1.81-2.6,3.34-5.48,5.54-7.8,5.94-6.27,9.78-13.11,7.58-22.21a6.41,6.41,0,0,1,1.47-4.52c11.3-13.68,21.53-28.55,34.36-40.65,21.77-20.57,42.06-42.39,62.69-64,4.07-4.18,8.59-7.91,13.85-12.83-2.21-.17-3.28-.28-5.32-.45,44.71-49.41,100.45-85.24,147.14-131.48,1.07,1.3,2.14,2.55,3.22,3.84l-15.43,11.87c8.87.4,17.86.85,26.79,1.25.11.73.22,1.41.34,2.09,3-3.17,5.59-7.18,9.27-9.27,2.32-1.36,6.22.23,9.44.45-1.36,2.55-2.15,5.77-4.19,7.41-4.4,3.67-12.66,3.9-10.28,13.51,1.81.28,4,.56,7.4,1.07-3,2.66-5.48,4.86-7.52,6.61,2,3.39,3.85,6.67,5.83,10.12l-12.66,11.76c6.44,4.29,8.3,8,4.8,14.58-2.32,4.3-1.13,10.35-2.09,15.49A21.8,21.8,0,0,1,1355.56,2589.13Zm295,401.55c-4-6.56-4-12.55,3.5-19,4.07,9.61,7.74,18.2,11.36,26.74C1659.83,3000,1654.69,2997.63,1650.51,2990.68Zm68.11-24.14c-.46,2.09-3.17,5.54-4.41,5.37-3.73-.51-7.29-2.49-10.91-3.84a63.34,63.34,0,0,0,2.71-5.88,27.19,27.19,0,0,0,1.81-7.75c.17-17.41.06-34.87-1.3-52.56-.68,3.56-1.81,7.12-1.92,10.74-.45,11.53.05,23.06-1,34.53a67.68,67.68,0,0,1-5.48,21.82c-1.92,4.3-6.95,7.24-11.31,11.53-.73-2.88-1.3-5.31-2-8.19-.62.73-1.13,1.07-1.3,1.52-1.41,4.18-1.53,10.06-4.41,12.21-6,4.52-8.14-3.33-11.53-6.16-6.67-5.6-14.19-10.91-18.65-18-4.64-7.41-4.87-16.85-3.4-26,1.36-8.76,1.53-17.69,2.1-26.57,1.18-19.33,2.71-38.72,3.27-58.11.29-10.11-1.58-20.29-1.58-30.46,0-7.86,2.26-15.72,2-23.57-.85-24.19-2.38-48.39-3.73-72.58-.06-1-1-2-3.17-6.22-5.65,10.29-9.55,18.94-14.87,26.57-6.83,9.83-14.86,18.82-22.32,28.21a14.36,14.36,0,0,0-1.3,2.31c-10,18.2-19.62,36.63-30.13,54.49-15.26,25.89-20.29,55.23-29.79,83.09q-7.2,21.38-14.58,42.73c-.74,2.21-1.41,4.87-3,6.33-8,7.3-15.26,16.68-24.75,20.52a45.61,45.61,0,0,0-17.87,12.95c-1,1.13-3.67,1-5.53.84-.51-.05-.85-2.43-1.19-3.78-1.7-5.77-2.77-11.82-5.26-17.24-3.67-8.14-7-15.72-6.22-25.21,3-38.27,5.26-76.59,7.63-114.86,1-15.6,1.59-31.26.4-47.08-2.83,16.95-5.6,33.85-8.42,50.76l-2.15.5c-.85-4.35-2.54-8.76-2.37-13.11,1-24.81,2.54-49.68,3.84-74.5.17-2.88,0-5.76,0-11-3,4-5.37,5.87-6.16,8.25-10.23,29.62-22,58.78-29.73,89-7.35,28.44-6.62,58-4.69,87.45.62,8.7-3.23,17.58-4.75,26.45-1.59,9.5-2.77,19.1-4.3,28.6-.62,4.13-1.64,8.14-2.43,12.21l-2.37-.17-1.76-6.61c-4.23,3.05-8.08,5.76-12.66,9.1-.84-4.58-1.41-7.69-1.92-10.86-.62.06-1.24.06-1.81.12-.45,2.54-.84,5-1.3,7.57l-3,.51c-.85-4.3-1.7-8.53-2.72-13.79h-18.54c-2.26-9.16-5.82-18.94-6.84-28.94-6.16-60.6,2.72-119.1,25.21-175.68,10.57-26.62,18.94-54.15,30.08-80.54,7.17-17,17.35-32.79,26.73-48.78,2.09-3.62,6-7.47,9.78-8.43s8.31,1.64,12.27,4c6.16-.06,10.11-15.32,19.55-1.75-1.81,2.2-3.73,4.63-6.89,8.53,8.36-1.81,15.54-3.95,19.84,4.75,3,6.16,12.43,10.51,3.9,18.54,14,20.86,28.65,56.24,27.58,68.85-5.71-11.48-10.63-21.26-14.3-28.66,4.69,25.83,9.89,54,15.15,82.81,2.77-5.94,6-12.27,8.7-18.77,3.34-7.86,5.54-16.22,9.5-23.68,5.76-10.85,13.06-20.92,19.1-31.66,6.73-12,13-24.41,19.22-36.68,5.77-11.25,11.42-22.61,17.52-34.76l-14,6.44c3.44-8,6.1-14.19,9.66-22.33,2.94,4.87,4,8,6.28,9.9,2,1.69,5.25,2,7.63,2.82-5.6,9.61-11.65,19.67-17.3,30-2.32,4.24-6.44,8.87.68,13.57,1.24-.85,3.22-2.21,7.06-4.81-2.88,5.43-4.63,8.82-6.38,12.15.45.34,1,.68,1.47,1.08,15.37-15,30.69-30.07,46.18-45.22,6.84,4.86,11.87,10.17,18,12.26,5.82,1.93,12.78.4,20.41.4-.23-4.69-.51-8.82-.74-13.79,10.46,7.46,10.29,19.22,13.12,29.11,3,10.29,3.5,21.25,5.42,33.86,3.51-5,5.94-8.54,8.37-12,.45.17,1,.34,1.47.57-1,3-1.53,6.44-3.11,9.15-6.05,10.29-6.5,21.2-5.54,32.68,3.62,41.26,6.95,82.58,10.46,123.9,2.26,27.13,4.8,54.2,6.78,81.39C1720.82,2954.78,1719.69,2960.77,1718.62,2966.54Zm-16.79-554.1c-18.37,34.87-36.57,69.8-54,105.19-10.46,21.31-19.22,43.46-29.62,67.2,2.94-12.54,4.52-23.4,8-33.68,9.27-27.36,18.14-55,29.45-81.46,9.78-22.83,21.59-44.76,36.85-64.94,20.75-27.36,39.4-56.36,59.69-84.11,11.65-15.94,24.76-30.86,37.31-46.12,13.85-17,28.2-33.63,41.66-50.93,16.78-21.59,35.94-40.53,58.84-55.62,3.84-2.54,7.68-5.14,11.47-7.74,5.43-3.73,5.77-13.68.4-17.64-11-8.14-22.27-15.88-33.18-24.13-3.17-2.44-5.49-6-7.24-8,18.32,8.88,37.48,17.41,55.85,27.42,11.08,6,20.86,5.88,32.44,2,24.59-8.31,49.57-15.21,74.9-22.78-1.13,10.57,5.48,12.09,13.79,11.87,23.23-.68,46.46.17,68.79,7.23a363.34,363.34,0,0,1,39.06,15.43c-16.06-3.61-32.11-7.4-48.22-10.79-32.5-6.84-65.79-11-98-3.79-32,7.24-64.49,14.81-93,33.69-31.66,20.91-59.3,46-84.85,73.71-32.89,35.66-61.72,74.5-89.42,114.18C1721,2375.53,1711.49,2394.12,1701.83,2412.44ZM1989,2246.71c-2.77,5.71-7.4,5.88-12.83.17,5-2.66,2.37-13.51,11.7-9.61C1989.37,2237.89,1990.21,2244.16,1989,2246.71Zm-175.85,249.66c-3.78,3.17-7.57,6.28-11.36,9.39-.84-.91-1.64-1.81-2.48-2.72,3.61-3.39,7.17-6.78,10.74-10.11Zm-43.35,63c-1,.06-2,.06-3,.11-1-5.42-7-10.79,1.52-17.86C1768.87,2548.71,1769.32,2554,1769.77,2559.34Zm-17-27c-.68,4.47-1.42,9-2.38,13.4,0,.06-2.43-.34-3.73-.57.74-4.63,1.47-9.27,2.38-15C1752.14,2531.93,1752.76,2532.21,1752.76,2532.32Zm22.61,139.73c-1.7,3.22-4.75,6.56-8,7.8-1.47.57-6.11-3.33-6.9-5.93-.62-2,2.49-5.21,4.13-7.75a31.22,31.22,0,0,1,3.9-5.09,63,63,0,0,1,5-4c1.07,1.7,2.09,3.39,2.09,3.39C1775.59,2666.06,1776.61,2669.62,1775.37,2672.05Zm241.75,42.51c.62.56,1.19,1.13,1.75,1.64,2.94-2.6,5.88-5.26,8.82-7.86.45.39.9.73,1.36,1.13-7,7.86-14,15.71-20.92,23.63l.91.9c5.48-4.69,11-9.38,16.5-14.13l1.81,1.81c-10.12,13.79-20.24,27.64-30.3,41.43l1.76,1.75c2-1.13,4-2.26,7.06-4.07-.85,2.83-1,4.69-1.86,6-15.66,22.56-32.68,44.49-57.26,57.38-7.18,3.78-8.82,10.34-15,14.07-11.42,6.9-31.76,14.24-46.29,4.8-12.83-8.36-25.49-17.57-31.88-31.42-5.71-12.38-15-22.16-20.58-34.26-2.37-5.14-3.5-10.79-5.2-16.22.68-.34,1.3-.68,2-1l6.45,4.47c-4.13-7.29-7.13-12.55-10.35-18.31-1.3,1.63-2.2,2.88-2.6,3.39-3.39-2.77-6.89-5.2-9.83-8.2-1.7-1.69-4-4.8-3.45-6.44,3.5-11.31-4.07-19.79-6.84-29.4-4.41-15.14-9-30.18-12.89-45.44-.85-3.5,1-7.69,1.53-11.53h0c.34-2.6.68-5.26,1.19-8.65-2.77.23-9.1,10.34-8.76-3-4.13,1.69-7.23,3.56-10.57,4.18-3.9.73-8.25,1.24-11.87.17-2.2-.62-3.45-4.47-5.09-6.9,2.49.11,5,.34,7.46.23,3.74-.17,9,.79,10.91-1.25,3.51-3.67,12.5-6.27,5.32-15.65-2.15,2.65-4.07,5-6.33,7.85-1.3-.79-2.94-1.8-6.73-4.07-1.7,3.11-3.84,7.24-6,11.37-1-.74-2-1.42-3-2.1-.46-5.2-.91-10.4-1.36-16.33-1.3.51-3.34,1.36-5.37,2.15-12.83,5.2-14.07,4.24-12.77-10,2.43-.34,5-.56,7.51-1s5-1,7.92-1.64c-3.11-4.07-6.28-8.25-9.39-12.43l1.3-1.3c3,1.24,6,2.43,7.86,3.22,4.13-3.68,8-6.16,10.51-9.67,3-4.29,4.13-10,7.35-14,6.62-8.25,2.43-17.57,4.3-26.17.56-2.65,5-4.46,8-6.95,2.1,1.47,4.7,3.39,8.77,6.33-1.19-3.39-1.87-5.37-2.6-7.35,1.69-1.07,3.39-2.14,6.1-3.9l-11.93-3.73c5.2-7.51,13.74-6.55,19.22,1.47,5,7.52,11.65,9.33,19.39,4.36,16.39-10.57,32-22.39,48.84-32.17,13.84-8.08,29-14,43.63-20.68,1.36-.63,3.22-.12,5.6-.12-5.94,6.33-11.08,11.87-16.22,17.36,10.34-3.23,21-6.5,31.59-9.84-9.66,9.61-19,18.65-20.46,34.37-7,5.87-15.32,12.88-25.72,21.65l28.15-13.8c.4.57.74,1.19,1.13,1.81-6.27,5-12.55,10-18.76,15-20.8,16.79-41.66,33.52-62.18,50.59-2.2,1.87-4.18,6.27-3.56,8.82,4.86,19.72,10.34,39.28,15.77,58.84.34,1.3,1.52,2.37,2.82,4.35,16.4-12.43,32.11-26.28,55.29-24L1875,2659.39c.4,1.24.85,2.49,1.24,3.67,17.53-5.08,35-10.23,52.57-15.37,1.92,10.46,1.87,10.23-6.33,13.51-2.94,1.18-5.37,3.61-10,6.84,7.8,2.31,19-6,15.66,7.18,2.49,1.8,4.64,3.39,6.78,5a56.5,56.5,0,0,1-5.31,5.71c-3.22,2.54-10.8,1.19-8.14,9.27.17.45-3,2.15-4.75,3-3.33,1.87-6.78,3.56-9.44,6.56,9.56-3.39,19.11-6.79,28.66-10,.23,0,1.07,1.87,1.53,2.66-11.48,5.37-22.78,10.34-33.63,16.17-2.77,1.46-4.41,5.59-6,8.7s-14.64,8.82-19.55,6.73c2.65,9.15,5,17.24,7.57,25.71-1.7-.5-3.16-1-4.75-1.41,7.63,21.76,16.9,30.24,31,26.68-2.77,2.26-4.35,3.62-6,4.92,8.47,10.85,18.54,11.13,26.45.85,6.16-8,12-16.11,19.22-23.8-1,2.94-2,5.93-3,8.87.28.17.62.29.91.46,6.89-8.71,13.73-17.41,22.27-28.21-1.08,4.35-1.47,6.05-2.32,9.61,23.46-28.77,46.63-54.94,76.25-74.16.85.91,1.7,1.75,2.6,2.66C2038,2692.34,2027.58,2703.42,2017.12,2714.56Zm198.12-287.71c-.29,2.43-.68,4.86-2.55,7.12.28-6.61.57-13.22,1-21.7-3.84,13.51-7.12,25.09-10.45,36.68l3.05-.34c1.35,4.64,4.8,9.78,3.73,13.79-6.28,23.91-12.38,48-21.14,71.17-4,10.62-13.91,19.1-21.2,28.54-4.69,6-9.27,12.1-14.41,17.75-2.49,2.66-6,4.35-9.05,6.44v.12c-.16,0-.33.17-.5.22-7,4.47-14,8.93-21,13.4-.57-1-1.13-2-1.7-3,7.57-3.5,15.09-6.89,22.67-10.4l.45-.28a.05.05,0,0,0,0-.06c.34-1.52.74-3.05,1.36-5.71-11.76,4.36-23,8-33.8,12.72-12.94,5.6-18.65,5-28.83-4.92-5,1.93-10.11,4.41-15.43,5.77-2.43.62-5.42-1-8.14-1.47,1-2.15,2.15-4.18,3-6.39,1-2.48,1.87-5.14,2.6-7.34-6.44-.57-11.3-.57-15.94-1.64-2.09-.51-3.78-3.06-5.42-4.92-2.21-2.38-4.18-5-6-7.12.51-.23,2.54-1.19,6.38-2.83-3.22-3.67-5.82-6.61-7.29-8.31,4.52-7.57,8.88-14.92,12.61-21.2,5.54,2.32,10.79,4.58,16.11,6.79.85-3.68,1.64-7.41,2.71-12a31.19,31.19,0,0,0,5.88.34c4.07-.34,8-1.08,12-1.81,3.16-.57,6.33-2,9.49-1.92,10.8.28,17.3-5.71,23.12-13.91,14.64-20.74,22.89-43.86,27.13-68.67a41.53,41.53,0,0,1,3.28-11c7.46-14.81,2.49-28.77-2.77-42.67-2-5.43-5.59-6.62-10.28-3.11-3.51,2.71-7.3,5.26-10.07,8.65a371.63,371.63,0,0,1-58.61,58.73c-1.64,1.3-1.75,4.57-2.6,6.89,1.13.91,2.32,1.75,3.45,2.66q23.91-17.73,47.76-35.44c.51.62,1.07,1.18,1.64,1.81-8.2,7.63-15.83,16-24.7,22.77-12.78,9.9-25.44,20.52-42.11,23.58-3,.56-6.28.17-9.39.28-5.2.17-10.85-.79-15.54.9-10.91,4-20.91,2.89-30.52-3-30.41-18.6-49.29-46-57.26-80.15-3.9-16.85-6.95-34.94-4.92-51.84,2.6-21.31,1-42.84,5-63.7,1.81-9.5,8.88-18.14,14.42-26.62,1.41-2.09,6.55-3.11,9.38-2.38,1.58.4,3,5.43,2.82,8.31-.56,10.86-1.8,21.71-2.82,32.62h10.12c.62,2,1.24,4.07,2,6.61,1.81-10.12,3.45-19.5,5.09-28.83,1.35,0,2.77-.05,4.12-.11,1.3,6.05,3.51,12,3.62,18.09.91,41.83,7.75,82.35,25.1,120.73,1.41,3.17,4.69,5.43,6.56,8.43,1,1.63.73,4,1.41,8.53,16.79-11.93,32.73-23.17,50.87-36-8.76,16.34-29.45,19.34-34.82,38.21,28.21-13.33,45.73-36.06,66.93-54.37-11.76,2.94-17.53,17.29-32.79,16.05,4.35-4.07,7.46-7.91,11.36-10.46,14.08-9.21,24.48-24.24,42.73-26.84,1.64-.23,3-2.49,4.41-3.85,9.27-8.65,19.39-11.36,32.51-9,28.14,5.09,38.26,25.66,46.51,49.06C2212.58,2398.76,2217,2412.21,2215.24,2426.85Zm69-597.4c-2.82-5.48-11.75-4-15.14,1.47-3.56,5.71-8.14,10.91-11.31,16.84-2.82,5.26-3.33,11.93-6.67,16.68-13.56,19.16-28.15,37.59-41.83,56.63-18.59,25.83-37.47,51.44-54.94,78s-35.66,51.72-56.8,75.4c-14.3,16-31.94,24.81-49.91,34.25-2.1,1.08-5,.68-8.82,1.08,11.47-8.54,22.61-15.26,31.71-24.08,14.41-14.08,27.52-29.51,41.09-44.54,17.64-19.5,30-42.62,43.69-64.78,5.43-8.7,6.16-17.35,2.32-26.68-1.07-2.66-1.75-5.48-2.6-8.19.79-.51,1.3-1.08,1.7-1,14.47,2.65,24.42-4.07,33.35-14.76,15.94-19,34.53-36.17,48.27-56.63,13.11-19.62,22.78-41.94,31.54-64,7-17.7,10.34-36.86,15.43-55.91,7.06,8.43,3.5,17.64,2.54,26.29-1.41,12.94-3.16,25.72,2.43,38,4.81,10.51,13.06,17.46,23.69,21.87a17,17,0,0,1,7.06,6.28C2308.27,1838.94,2292.79,1845.73,2284.19,1829.45Zm40.48-131.19c-7.24,1.3-13.4,2.43-19.62,3.56,0,.56,0,1.07-.05,1.64,2.31.17,4.57.39,7.12.62-8.2,8.82-19.22,9.61-65.06,4.69,1,4.24,1.81,8.14,2.82,11.87,3.11,11.13,4.19,23.57,10.12,32.84,5.15,8,4.52,15.32,4.58,23.17,0,3.51-2.37,7-5.14,10,.79-8.25,1.58-16.51,2.54-26.28-7.23,3.67-11.93,6-17,8.64,1.52,1.08,3.22,2.38,4.91,3.62-.39.68-.73,1.36-1.13,2.09-4.57-2.43-9.21-4.8-14.18-7.4v10c-6.39-6.73-13.4-10.91-15.21-16.68-5.48-17.24-9.44-35-13-52.79-1.64-8.37-4.52-13-13.51-15.38a188.43,188.43,0,0,1-35.5-13.73c-9.55-4.81-18.14-11.59-27-17.69-9.39-6.45-9.27-6.5-.91-16.28.62-.74.34-2.21.34-2.6-2.94.39-6.39,1.86-8.31.73-1.75-1-1.81-4.86-2.65-7.46-.46-1.3-1.76-2.6-1.59-3.79.23-2.26,1.25-4.4,1.92-6.55,2.44.85,5,1.35,7.13,2.65,1.47.91,1.92,3.79,3.33,4.24,19.11,6.11,38.27,11.93,57.49,17.81a4.72,4.72,0,0,0,1.64.11c1.86-6.84,5-13.28,5.08-19.78.4-20.69-.39-41.43-.62-62.18a278.4,278.4,0,0,1,1-30.58c1.64,5.37,3.28,10.69,4.92,16.05.62,0,1.18,0,1.81-.05.67-4.92,1.41-9.84,2.48-17.52,2.77,9,5.48,15.48,6.67,22.27s4.58,10.85,12.1,11.64c-.51-3.62-1-7.46-1.53-11.3.51-.29,1-.57,1.47-.85,1.19,1.58,2.66,3,3.51,4.75,6.16,12.88,7.91,26.73,8.87,40.81,1.36,19.38,2.83,38.83,3.9,58.27.4,6.33,3.22,9.22,9.16,11.08,20.68,6.73,41.6,8.65,63,4.75,8.71-1.58,8.54-1.47,9.95,7.18.17,1.07,3.28,1.75,5.14,2.31,1,.29,2.09-.28,3.11-.11.4,0,.74.85,2,2.66-4.47,1.52-8.2,2.88-12.83,4.46C2320.48,1695.43,2322.24,1696.62,2324.67,1698.26Zm-790.1,591.63c36.86,22.78,74.28,24.87,112.66,4,5.2-2.83,5-5.54,1.18-9.56-10.91-11.42-21.53-23.17-32.44-34.59-2-2.2-5-3.62-7.46-5.43l-2.15,1.64c1.92,18.09,3.9,36.12,5.88,54.55-14-2.38-6.61-16.28-13.85-23.35-.85,4.07-1,7.24-2.2,9.95-1,2.15-3.17,3.79-4.81,5.65-1.58-1.86-4.35-3.61-4.63-5.7a281.75,281.75,0,0,1-2.55-30c-.22-8.42.79-16.9,1.36-26.91-15.71,4.35-23.46,17.36-37.31,26.85.06-.56.17-1.07.23-1.58-6.33,9.33-11.08,16.79-16.34,23.91C1528.53,2284.24,1529.77,2287,1534.57,2289.89Z" transform="translate(-773.33 -294.29)"/><path class="cls-1" d="M1614.69,2700q-8.43,12.69-16.85,25.37l-3.11-2,16.42-25.62Z" transform="translate(-773.33 -294.29)"/><path class="cls-1" d="M1512.07,2840.52v-43.4l4,.18q-1.65,21.67-3.28,43.34Z" transform="translate(-773.33 -294.29)"/><path class="cls-1" d="M1549.25,2762.91l10.26-22.16,3.25,1.54-11.39,21.94Z" transform="translate(-773.33 -294.29)"/><path class="cls-1" d="M1046.88,2260.2l-69.47,22.6c.68-1,1.87-4.41,4.21-5.59,19-9.6,38.86-16.91,60.43-18.14C1043.52,2259,1045,2259.75,1046.88,2260.2Z" transform="translate(-773.33 -294.29)"/><path class="cls-1" d="M1134,2525.51l-9.46,6.9,11,.84c-5.06,1.45-10.69,8.33-14.68-1.36-.36-.88-3.68-.9-5.57-.74-9.67.83-19.32,2-29,2.72a7.14,7.14,0,0,1-5.61-2.53Z" transform="translate(-773.33 -294.29)"/><path class="cls-1" d="M891.15,2375.89l-8.67,35.16-2.24-.24c-.1-2.09-.84-4.42-.17-6.23,3.58-9.54,7.51-18.95,11.32-28.42Z" transform="translate(-773.33 -294.29)"/><path class="cls-1" d="M1075.81,2525.76l-27.61,2.43c-.07-.88-.13-1.76-.2-2.64l27.45-2.82Z" transform="translate(-773.33 -294.29)"/><path class="cls-1" d="M2158.27,2555.76c9.16-17.71,17.84-32.78,24.87-48.58s12.4-32.38,19.11-48.45a115.11,115.11,0,0,1-12.86,48c-5.47,10.44-11.58,20.54-17.29,30.86-2.19,4-3.72,8.3-6.18,12.06C2164.56,2551.71,2161.91,2552.93,2158.27,2555.76Z" transform="translate(-773.33 -294.29)"/><path class="cls-1" d="M2150.87,2344.23c-6.94-.58-12.06,8.73-19.64,4.72-.18-.93-.37-1.86-.56-2.79l19.88-4.63C2150.66,2342.43,2150.76,2343.33,2150.87,2344.23Z" transform="translate(-773.33 -294.29)"/><path class="cls-1" d="M1222.31,2694.45l-24.91-7.5c32.55-30.88,63.86-60.58,95.18-90.27l1.29,1.19c-7,11.05-14.48,21.84-20.93,33.21-13.83,24.36-27.09,49-40.72,73.51-1,1.77-3.44,4.31-4.75,4.06a297.61,297.61,0,0,1-37.78-9.44C1199.88,2691.5,1211.11,2696.28,1222.31,2694.45Z" transform="translate(-773.33 -294.29)"/><path class="cls-1" d="M1805.41,2686.44q4.26,14.43,8.51,28.85l-3.69,1q-3.63-14.73-7.27-29.45Z" transform="translate(-773.33 -294.29)"/><path class="cls-1" d="M1791.79,2648.67l2.76-4.58c3,13.16,5.62,24.71,8.24,36.26l-2.7.75-8.31-32.44Z" transform="translate(-773.33 -294.29)"/><path class="cls-1" d="M1859.51,2810.57l26.66,23A55.49,55.49,0,0,1,1859.51,2810.57Z" transform="translate(-773.33 -294.29)"/><path class="cls-1" d="M1091.65,1373c-1.12,17-2.39,33.9-3.31,50.87-.65,12.08-1.56,24.22-1,36.27.46,9.43-1.55,14.91-11.91,16-6.59.73-13,3.16-20,3.89,4.24-8.73,13.74-9.36,20.89-14.71l-19.91,3c11.51-32.73,22.61-64.31,33.71-95.9Z" transform="translate(-773.33 -294.29)"/><path class="cls-1" d="M914.55,586l9.19-2.41c-.55,1.85-1.1,3.69-2.33,7.86L932.63,583l1.4.42c-1.31,2.11-2.2,5.49-4,6.07C924.81,591.21,918.34,596.67,914.55,586Z" transform="translate(-773.33 -294.29)"/><path class="cls-1" d="M1633.89,2249.19l7.65-4.14c2,6.11,4.06,11.16,5.18,16.41.52,2.4-.81,5.19-1.31,7.81-2.51-2.09-5.86-3.72-7.33-6.38C1636.08,2259.27,1635.53,2254.85,1633.89,2249.19Z" transform="translate(-773.33 -294.29)"/><path class="cls-1" d="M1609.33,2226.19l18.19,24.68-2.09,1.77c-7.27-7.25-16.21-13.06-19.84-23.41Z" transform="translate(-773.33 -294.29)"/><path class="cls-1" d="M1593.78,2251.85c-6.69-9.74-5.54-18.74,2.69-26.28C1600.05,2234.78,1596.66,2242.35,1593.78,2251.85Z" transform="translate(-773.33 -294.29)"/><path class="cls-1" d="M1534.12,2303l26.55,12.25c-11.55,3.43-20.56-.12-27.79-9.23C1533.29,2305,1533.71,2304,1534.12,2303Z" transform="translate(-773.33 -294.29)"/><path class="cls-1" d="M1655.33,2294.55l14.7-11.85c.49.61,1,1.21,1.46,1.82-3.22,6-7.32,11-14.52,12.07Z" transform="translate(-773.33 -294.29)"/><path class="cls-1" d="M1775,1719.68h21c-4.7-16.42-8.56-31.43-21.41-42.13-2.85-2.37-4.5-4.26-8-2.14-2-4.69-5.56-9.29-5.85-14.08a24.81,24.81,0,0,1,12.55-23.2c3-1.78,10.21.3,13.54,3,7,5.72,14,12.21,18.59,19.84,10.47,17.46,19.29,36,20.06,56.87.73,19.91-9.67,26.35-27.47,17.23C1789.89,1730.92,1782.7,1724.9,1775,1719.68Z" transform="translate(-773.33 -294.29)"/><path class="cls-1" d="M968.4,2109.17c-6.21-4.58-12.48-9.08-18.61-13.76-3.7-2.83-6.73-7.09-10.84-8.7-8.08-3.15-10.82-8-7-15.56,2.92-5.76,3.35-13.14,9.36-17,5.47-3.48,11.32-1.53,13.84,3.47a218.83,218.83,0,0,1,12.6,31.14c1.82,5.62,1.4,11.95,2,18Z" transform="translate(-773.33 -294.29)"/><path class="cls-1" d="M1155.57,1838.58l27.76,51.42-15,14.3-1.27-.82,6.54-12.11-9,4.63c-4-19.2-7.83-37.81-11.69-56.43Z" transform="translate(-773.33 -294.29)"/></svg>