<svg id="Layer_1" data-name="Layer 1" xmlns="http://www.w3.org/2000/svg" viewBox="0 0 366.46 43.28">
    <defs>
        <style>.cls-1{fill:#4d6aaf;}.cls-2{fill:#fff;fill-rule:evenodd;}</style>
    </defs>
    <title>logo</title>
    <path class="cls-1" d="M21.64,0A21.64,21.64,0,1,1,0,21.64,21.64,21.64,0,0,1,21.64,0Z"/>
    <path class="cls-2" d="M21.64.82A20.82,20.82,0,1,1,.82,21.64,20.83,20.83,0,0,1,21.64.82Z"/>
    <path class="cls-1"
          d="M61,21.2c-1.42.83-3,.56-4.61.5l-1.57.05h0a.68.68,0,0,1-.27-.05.26.26,0,0,1-.15-.25.28.28,0,0,1,.28-.24.61.61,0,0,0,.63-.21h0a3.89,3.89,0,0,0,.21-1.7h0c0-.35,0-.72,0-1.12s0-.79,0-1.28h0V14.05h0V11.63h0c0-.31,0-.63,0-1s-.06-.79-.49-.88-.64,0-.81-.11a.26.26,0,0,1,.06-.44.68.68,0,0,1,.27-.05h0l1.81.05h.38l.58,0h.18l.61,0a4.67,4.67,0,0,1,1.57.24,2.89,2.89,0,0,1,1.15.72h0a2.63,2.63,0,0,1,.18,3.37h0a7.79,7.79,0,0,1-.89,1.1A3.56,3.56,0,0,1,61,21.2ZM57.27,10.05h0l-.07,0v4.35l.35,0h0a5.72,5.72,0,0,0,.58,0h.67a1.2,1.2,0,0,0,.9-.62,2.87,2.87,0,0,0-.82-3.73,2.57,2.57,0,0,0-1.61-.09Zm2.39,5.64h0l-.12-.07a2.36,2.36,0,0,0-.65-.29,3.34,3.34,0,0,0-.89-.11h-.56l-.24,0c0,1.54-.06,3.12,0,4.66a1.74,1.74,0,0,0,.06.43h0a.46.46,0,0,0,.13.19h0a2.86,2.86,0,0,0,2.35.34,1.93,1.93,0,0,0,1.19-1,3.7,3.7,0,0,0-1.29-4.18Z"/>
    <path class="cls-1"
          d="M80.2,21.75H79l-.8,0-1.58.05a.68.68,0,0,1-.27-.05.26.26,0,0,1-.15-.23c0-.32.48-.28.74-.31h0c.29-.12.32-.49.35-.76h0c0-.13,0-.31,0-.53,0-.71,0-1.44,0-2.16V16.9h0V14.05h0V12.14h0V10.55a1.08,1.08,0,0,0-.12-.53.83.83,0,0,0-.56-.27l-.15,0h0c-.17,0-.38,0-.38-.25s.13-.28.41-.28l1.63.05L79.8,9.2h0c.27,0,.41.1.41.28a.26.26,0,0,1-.28.25c-.6.07-.89.16-.89.82V16.9h0v.82c0,.86,0,1.74.07,2.6a1.32,1.32,0,0,0,.2.7c.22.22.73.17,1,.2h0a.3.3,0,0,1,.26.16c.11.36-.39.37-.39.37Zm-6.14-1.11c-1.52,1.47-3.48,1.14-5.37,1.06l-1.58.05h0a.63.63,0,0,1-.26-.05.25.25,0,0,1-.15-.23c0-.38.66-.2.85-.37h0c.27-.24.27-1,.28-1.23s0-.5,0-.82h0c0-1.67,0-3.33,0-5v-3.5h0a1,1,0,0,0,0-.31A.59.59,0,0,0,67.7,10l-.08-.09a.38.38,0,0,0-.19-.11h0l-.18,0h0l-.15,0-.14,0h0c-.18,0-.39,0-.39-.25s.14-.28.41-.28c.55,0,1.09.07,1.63.05l1.58-.05c.27,0,.41.1.41.28s-.09.25-.28.25l-.38,0a.5.5,0,0,0-.35.22,1,1,0,0,0-.12.55v3.86a5.41,5.41,0,0,0,1.46.09c2.25,0,4.28,1.33,4.28,3.59a3.7,3.7,0,0,1-1.14,2.55Zm-.63-1.81h0a3.89,3.89,0,0,0-.24-1.4h0a3.63,3.63,0,0,0-.46-.87h0a2.84,2.84,0,0,0-1-.91,3.33,3.33,0,0,0-1.45-.31h0c-.7,0-.73.18-.73.79v3.5a2.77,2.77,0,0,0,.07.8.36.36,0,0,0,.12.16h0a1.14,1.14,0,0,0,.27.17,2.22,2.22,0,0,0,.66.17h0l.22,0a2.12,2.12,0,0,0,2.58-2.12Z"/>
    <path class="cls-1"
          d="M94.58,20.25h0a4.88,4.88,0,0,1-.15.68,1.21,1.21,0,0,1-.19.46h0l0,0h0l0,0h0l-.25.14h0l-.13,0h0l-.14.05h0a7.86,7.86,0,0,1-1,.18l-.84.08-.82,0a7.74,7.74,0,0,1-5.61-1.91,6.35,6.35,0,0,1-1.85-4.79h0A7.07,7.07,0,0,1,83.84,13,6,6,0,0,1,85,11.14h0a5.58,5.58,0,0,1,1.18-1A7.53,7.53,0,0,1,90.38,9l1,0h0c.33,0,.66.06,1,.11l1,.15,1,.14a.43.43,0,0,1,.24.08.31.31,0,0,1,.11.25v0l0,.45h0l0,.46c0,.12,0,.23,0,.35s0,.39,0,.62a6.9,6.9,0,0,1,0,.82.57.57,0,0,1-.07.22.24.24,0,0,1-.21.13.23.23,0,0,1-.23-.18h0a.78.78,0,0,1,0-.3,2,2,0,0,0-1.12-1.87h0l-.29-.15-.32-.12a6.36,6.36,0,0,0-2-.29,6.49,6.49,0,0,0-2.42.4,3.77,3.77,0,0,0-2.09,2,7.18,7.18,0,0,0-.52,2.89,5.74,5.74,0,0,0,1.58,4,5.45,5.45,0,0,0,1.85,1.31,5.74,5.74,0,0,0,2.27.44,6.89,6.89,0,0,0,1.66-.16h0l.17-.05.16-.06a2.29,2.29,0,0,0,.71-.5h0a2.59,2.59,0,0,0,.56-1.25h0a.5.5,0,0,1,0-.13h0a.3.3,0,0,1,0-.1h0a.27.27,0,0,1,.23-.13h0a.22.22,0,0,1,.21.14.67.67,0,0,1,0,.22h0a7.28,7.28,0,0,1-.19,1.37Z"/>
    <path class="cls-1"
          d="M114.94,21.75h-1.2l-.8,0H99.19l-1.58.05h0a.63.63,0,0,1-.26-.05.25.25,0,0,1-.15-.23v0l0,0a.34.34,0,0,1,.24-.16c.47-.06.64,0,.76-.49h0a1.61,1.61,0,0,0,.06-.33h0c0-.13,0-.31,0-.53s0-.5,0-.82h0V16.9h0V14.05h0V12.14h0V10.55a1.51,1.51,0,0,0,0-.32.62.62,0,0,0-.57-.46h-.09a2.94,2.94,0,0,0-.44,0c-.19,0-.28-.08-.28-.25s.14-.28.41-.28h0l1.83.05,1.58-.05h0c.27,0,.41.1.41.28a.23.23,0,0,1-.1.2.32.32,0,0,1-.18.05l-.4,0a.52.52,0,0,0-.36.22h0a1,1,0,0,0-.13.55V16.9h0v2c0,.31,0,.59,0,.85s0,.47,0,.66h0c0,.06,0,.11,0,.15l0,.16h0v0h0a.19.19,0,0,0,.13,0h4.56a.33.33,0,0,0,.15,0h0a.08.08,0,0,0,0,0h0v0c0-.06,0-.17,0-.3h0v-.08h0V20q0-.36,0-1h0V16.9h0V14.05h0V12.14h0V10.53h0a1.39,1.39,0,0,0,0-.3h0a.67.67,0,0,0-.09-.21h0a.75.75,0,0,0-.57-.26l-.14,0h-.1c-.19,0-.29-.08-.29-.25s.14-.28.41-.28h0l1.63.05,1.58-.05h0c.27,0,.41.1.41.28a.23.23,0,0,1-.1.2.35.35,0,0,1-.18.05l-.4,0A.52.52,0,0,0,107,10h0a1,1,0,0,0-.13.55V16.9h0v.82c0,.67,0,1.35,0,2,0,.24,0,.47,0,.66h0a.87.87,0,0,0,0,.33s.07,0,.19,0h4.59a.33.33,0,0,0,.15,0h0l0,0h0a.08.08,0,0,0,0,0h0v0h0c0-.06,0-.16,0-.3h0a12.26,12.26,0,0,0,.07-1.29h0V16.9h0V10.55a1.51,1.51,0,0,0,0-.32.57.57,0,0,0-.46-.44l-.3,0H111c-.19,0-.28-.08-.28-.25s.14-.28.41-.28h0l1.82.05,1.58-.05h0c.27,0,.41.1.41.28a.25.25,0,0,1-.09.2c-.28.2-.71,0-.95.32h0a1,1,0,0,0-.13.55V16.9h0v2.76c0,.26,0,.48,0,.66,0,.41.06.77.52.84l.7.06h0a.3.3,0,0,1,.26.16c.08.27-.14.37-.38.37Z"/>
    <path class="cls-1"
          d="M140.81,9.48a.23.23,0,0,1-.1.2.32.32,0,0,1-.18.05,2.32,2.32,0,0,0-.53,0h0a.71.71,0,0,0-.44.25.86.86,0,0,0-.15.53V16.9c0,.78,0,1.45,0,2,0,.26,0,.53,0,.79s0,.44,0,.6a5.26,5.26,0,0,0,.09.56h0a.38.38,0,0,0,.26.31l.48.06a.37.37,0,0,1,.27.2v0c0,.18-.14.28-.41.28h0l-1.52-.05h-.91l-1.07,0h0a.63.63,0,0,1-.26-.05.25.25,0,0,1-.15-.23.3.3,0,0,1,.28-.25h0l.71-.06h0a.66.66,0,0,0,.21-.08h0a.49.49,0,0,0,.13-.12,1.34,1.34,0,0,0,.09-.24h0a2.21,2.21,0,0,0,.07-.32h0c0-.13,0-.31,0-.53s0-.5,0-.82h0V16.9h0v-.37h-1.74l-1.36,2.23h0l-.19.29h0l-.18.27h0c-.3.44-.54.79-.74,1h0l-.15.18h0l-.15.17h0a2.39,2.39,0,0,1-1.49.95l-.45.05-.62,0h-1a1.37,1.37,0,0,1-.34,0,.26.26,0,0,1-.2-.24c0-.2.23-.25.37-.25h.14l.28,0h0l.11,0,.1,0h0a3,3,0,0,0,.5-.19h0a4.31,4.31,0,0,0,.55-.36,5.52,5.52,0,0,0,.57-.53h0c.21-.26.43-.55.65-.87s.46-.66.69-1,.48-.75.71-1.13.4-.68.59-1a4.24,4.24,0,0,1-.82-.49h0a4,4,0,0,1-.77-.81,3.18,3.18,0,0,1-.68-1.9,3.63,3.63,0,0,1,.36-1.64,3.18,3.18,0,0,1,1.07-1.22h0a2.84,2.84,0,0,1,.34-.22h0c.12-.06.24-.13.36-.18a5.32,5.32,0,0,1,2.17-.42c.71,0,1.42.08,2.12.13l1.82-.05h0c.27,0,.41.1.41.28Zm-3,5.79v-5h0l0,0h0A6.22,6.22,0,0,0,137,10c-.2,0-.39-.06-.55-.07l-.38,0a3.1,3.1,0,0,0-.79.1,2,2,0,0,0-.64.31,1.75,1.75,0,0,0-.59.77,3.62,3.62,0,0,0,.68,3.59h0c.09.08.17.17.26.24a2.47,2.47,0,0,0,.27.21h0a2.85,2.85,0,0,0,1.64.48c.49,0,.71,0,.9-.38Z"/>
    <path class="cls-1"
          d="M181.81,21.47c0,.18-.17.28-.51.28h-1.67l-.29,0a2.67,2.67,0,0,1-.68-.15h0a3.11,3.11,0,0,1-.63-.32h0l-.32-.23-.42-.33h0a1.77,1.77,0,0,1-.17-.14l-.22-.21c-.43-.42-1.11-1.13-2-2.12h0l-1.55-1.69c-.31-.35-.57-.64-.76-.87V16.9h0v1a8.79,8.79,0,0,0,.23,3,.44.44,0,0,0,.34.19h0a2.18,2.18,0,0,1,.65.06c.28.09.39.31.09.48a.6.6,0,0,1-.26.05H172.5l-.77,0-1.56.05a.63.63,0,0,1-.26-.05.24.24,0,0,1-.12-.32.34.34,0,0,1,.24-.16l.47-.06c.29-.07.32-.54.35-.76.05-.45.06-.9.07-1.35h0V16.9h0V14.05h0V12.14h0V10.55a1.51,1.51,0,0,0,0-.32.63.63,0,0,0-.14-.27.91.91,0,0,0-.52-.2,2.94,2.94,0,0,0-.44,0c-.19,0-.28-.08-.28-.25a.25.25,0,0,1,.15-.23h0a.63.63,0,0,1,.26-.05h1l.76,0,1.58-.05h0c.28,0,.42.1.42.28h0a.19.19,0,0,1-.05.13h0a.11.11,0,0,1-.07.06h0a.27.27,0,0,1-.16,0l-.4,0a.54.54,0,0,0-.38.22h0a1,1,0,0,0-.13.55v4.17c.16-.18.42-.44.77-.81l1.62-1.68h0l1.2-1.23c.17-.18.32-.33.43-.46h0l.26-.31h0l0-.06,0-.06h0a.57.57,0,0,0,.07-.16h0a.31.31,0,0,0,0-.15h0a.1.1,0,0,0-.06,0h0l-.17-.09a.21.21,0,0,1-.1-.18c0-.18.11-.27.34-.27h0l1.21.05,1.55-.05h0a.58.58,0,0,1,.25.05h0a.22.22,0,0,1,.15.22c0,.17-.11.26-.32.26a2.08,2.08,0,0,0-.4,0,3.78,3.78,0,0,0-.46.17h0l-.15.07-.13.08h0a3.55,3.55,0,0,0-.7.51l-.7.7h0c-.24.22-.64.62-1.21,1.18h0l-1.61,1.58c-.3.31-.52.54-.64.68l.31.33.77.81h0c.15.17.39.42.71.74h0l1.2,1.22c.7.72,1.16,1.17,1.35,1.35l.75.7h0l.4.35h0a4.85,4.85,0,0,0,.59.45,6.23,6.23,0,0,0,.63.32l.25.08.3.07h0l.4,0c.24,0,.36.08.36.25Z"/>
    <path class="cls-1"
          d="M195.45,15.2A6.71,6.71,0,0,1,193.64,20h0a5.29,5.29,0,0,1-.54.52h0c-.19.16-.39.31-.59.45a6.74,6.74,0,0,1-8.59-1.11h0c-.14-.17-.27-.35-.39-.52a6.32,6.32,0,0,1-.33-.56,6.82,6.82,0,0,1-.78-3.28,6.49,6.49,0,0,1,.39-2.25,6.69,6.69,0,0,1,1.15-2,5.8,5.8,0,0,1,2.18-1.68,7.56,7.56,0,0,1,5.4-.14h0a3,3,0,0,1,.38.15,6,6,0,0,1,1.71,1.11,5.89,5.89,0,0,1,1.84,4.54Zm-1.86.45a7.74,7.74,0,0,0-.36-2.45,5.38,5.38,0,0,0-1.09-1.89h0a4.64,4.64,0,0,0-1.5-1.11,5,5,0,0,0-3.68,0,3.89,3.89,0,0,0-1.42,1h0a3.74,3.74,0,0,0-.57.74h0a4.56,4.56,0,0,0-.4.9,7,7,0,0,0-.33,2.25h0a6.47,6.47,0,0,0,1.44,4.39h0c.14.15.28.3.42.43s.29.25.44.37a4.56,4.56,0,0,0,4.47.47h0l.3-.15a2.29,2.29,0,0,0,.29-.18h0a3.94,3.94,0,0,0,1.16-1.24h0a6.53,6.53,0,0,0,.82-3.47Z"/>
    <path class="cls-1"
          d="M206,21.26a.23.23,0,0,0-.08.17.21.21,0,0,0,.14.2.24.24,0,0,0,.09,0h0a1.84,1.84,0,0,0,.41,0h0l2.54.05h0c.73-.08.47-.54.16-.53a1.28,1.28,0,0,1-1-.29l-.16-.16a3.88,3.88,0,0,1-.55-.86l-.11-.23c-.4-.92-.75-1.86-1.11-2.8l-.37-.95h0c-.43-1.1-.85-2.2-1.27-3.3l-.27-.7h0c-.2-.54-.41-1.08-.61-1.61l-.12-.32-.12-.31h0c0-.13-.09-.24-.13-.33h0a1.54,1.54,0,0,0-.1-.19A.31.31,0,0,0,203,9a.24.24,0,0,0-.16,0h0a.4.4,0,0,0-.1.12h0a2.17,2.17,0,0,0-.1.21c0,.09-.08.21-.13.35h0l-3.67,10.08a3.82,3.82,0,0,1-.5,1,1.06,1.06,0,0,1-.72.43h-.47c-.3,0-.42.36-.13.48a.76.76,0,0,0,.29.05h0l.94,0h.89l1.26.05c.18,0,.4-.07.4-.28,0-.42-.74-.1-.91-.44h0a.25.25,0,0,1,0-.13,2.34,2.34,0,0,1,.11-.69l1.37-4h0l1.41-4.31,1.51,4.3h0l.29.79h0l1.5,4c.12.27,0,.24-.14.32Z"/>
    <path class="cls-1"
          d="M239.35,17.81c0,.13-.1.25-.16.38h0A6.44,6.44,0,0,1,238,20h0a6.21,6.21,0,0,1-4.76,2,13.94,13.94,0,0,1-2.05-.15h0l-.5-.08h0a2,2,0,0,1-1-.36.53.53,0,0,1-.17-.23h0a.87.87,0,0,1,0-.22h0a2.66,2.66,0,0,1,0-.3c0-.16,0-.33,0-.52h0c0-.41.07-.83.11-1.25h0a.79.79,0,0,1,0-.25.25.25,0,0,1,.44,0h0a.36.36,0,0,1,0,.19h0a4.08,4.08,0,0,0,.16.86,1.63,1.63,0,0,0,.11.23,1.85,1.85,0,0,0,1,.84h0a3.45,3.45,0,0,0,.43.12,7.36,7.36,0,0,0,1.54.14h0a5,5,0,0,0,1.91-.35,1.51,1.51,0,0,0,.26-.12h0a3.74,3.74,0,0,0,1.16-.9h0a4.24,4.24,0,0,0,.31-.4h0c.09-.15.18-.3.26-.46a6.75,6.75,0,0,0,.62-3.09,1.51,1.51,0,0,0,0-.3h-3.71a3.75,3.75,0,0,0-1.07.11,1.1,1.1,0,0,0-.26.15,1.52,1.52,0,0,0-.38.53l-.1.19c-.08.2-.21.29-.4.21a.36.36,0,0,1-.13-.26,9.93,9.93,0,0,1,.36-1.68c0-.13,0-.29.15-.37h0a.28.28,0,0,1,.18-.06l.13.05h0l.16.1h0a.56.56,0,0,0,.18.07,2.87,2.87,0,0,0,.5.07h4.33a6.44,6.44,0,0,0-.54-1.92h0a4.83,4.83,0,0,0-1.1-1.53h0a4.71,4.71,0,0,0-.76-.57,4.34,4.34,0,0,0-2.29-.61h0a5.77,5.77,0,0,0-1,.07,4.11,4.11,0,0,0-.82.22,2.33,2.33,0,0,0-.66.36h0a1.87,1.87,0,0,0-.46.51,1.4,1.4,0,0,0-.18.48h0a1.07,1.07,0,0,0-.05.32c0,.09,0,.44-.06.52s-.17.27-.31.16a.39.39,0,0,1-.14-.17h0a.77.77,0,0,1-.06-.23h0v-.22h0l-.05-.74v-.17h0v-.15c0-.24,0-.44,0-.58h0a.6.6,0,0,1,.07-.27h0l0,0h0a.58.58,0,0,1,.19-.15h0l.3-.14.29-.13a6,6,0,0,1,.6-.2h0a6,6,0,0,1,.61-.13A9.59,9.59,0,0,1,233.28,9a6.58,6.58,0,0,1,4.64,1.66,5.4,5.4,0,0,1,1.41,2,7.45,7.45,0,0,1,0,5.16Z"/>
    <path class="cls-1"
          d="M285.1,21.75h-1.19l-.8,0-1.58.05h0a.67.67,0,0,1-.26-.05.25.25,0,0,1-.14-.23.3.3,0,0,1,.26-.25l.47-.06a.27.27,0,0,0,.12-.06h0a1.3,1.3,0,0,0,.23-.7c0-.13,0-.31,0-.53s0-.5,0-.82h0V16.9h0V15.43h-6.76V16.9h0v2.39a3.8,3.8,0,0,0,.24,1.68.4.4,0,0,0,.33.19h0l.7.06c.14,0,.29.08.29.25s-.13.28-.41.28h-.87l-1.12,0-1.59.05a.68.68,0,0,1-.27-.05.25.25,0,0,1-.15-.23c0-.3.56-.29.75-.31.41-.09.38-1,.39-1.29s0-.5,0-.82h0l0-1V16.9h0V14.05h0V12.14h0V10.55a.68.68,0,0,0-.69-.79,2.94,2.94,0,0,0-.44,0c-.19,0-.28-.08-.28-.25s.14-.28.41-.28h0l1.83.05,1.59-.05c.27,0,.41.1.41.28a.26.26,0,0,1-.1.2,2.6,2.6,0,0,1-.58.1c-.39.07-.49.41-.49.77v4h6.76v-4a1.51,1.51,0,0,0,0-.32.83.83,0,0,0-.09-.21h0l0,0,0,0a.66.66,0,0,0-.28-.13l-.3,0h-.33c-.2,0-.29-.08-.29-.25s.14-.28.41-.28h0l1.82.05,1.59-.05h0c.27,0,.41.1.41.28a.25.25,0,0,1-.09.2.38.38,0,0,1-.19.05l-.4,0a.52.52,0,0,0-.36.22h0a1,1,0,0,0-.13.55v7.37c0,.59,0,1.18,0,1.77,0,1.26.11,1.54,1.26,1.53h0c.1,0,.26,0,.3.21s-.18.32-.43.32Zm-9.57-6.35s0,0,0,0h0Z"/>
    <path class="cls-1"
          d="M301.74,15.2a6.71,6.71,0,0,1-1.8,4.77h0a6.57,6.57,0,0,1-.54.52h0a6.41,6.41,0,0,1-.58.45,6.5,6.5,0,0,1-3.67,1,6,6,0,0,1-4.92-2.15h0c-.14-.17-.27-.35-.39-.52s-.23-.37-.34-.56a6.93,6.93,0,0,1-.77-3.28,6.73,6.73,0,0,1,.38-2.25,7,7,0,0,1,1.16-2,5.85,5.85,0,0,1,2.17-1.68A6.7,6.7,0,0,1,295.23,9h0a7.55,7.55,0,0,1,2.58.42h0a3,3,0,0,1,.38.15,6,6,0,0,1,1.71,1.11,5.89,5.89,0,0,1,1.83,4.54Zm-1.85.45a7.74,7.74,0,0,0-.36-2.45,5.54,5.54,0,0,0-1.09-1.89h0a4.57,4.57,0,0,0-1.51-1.11,4.31,4.31,0,0,0-1.81-.37,5,5,0,0,0-1.86.32,3.89,3.89,0,0,0-1.42,1h0a4.11,4.11,0,0,0-.56.74h0a4.56,4.56,0,0,0-.4.9,7,7,0,0,0-.33,2.25h0A6.51,6.51,0,0,0,292,19.4h0a5.7,5.7,0,0,0,.42.43c.14.13.29.25.44.37a4.57,4.57,0,0,0,2.73.85h0a4.15,4.15,0,0,0,1.73-.38h0l.31-.15a2.2,2.2,0,0,0,.28-.18h0a4,4,0,0,0,1.17-1.24h0a6.53,6.53,0,0,0,.82-3.47Z"/>
    <path class="cls-1"
          d="M320.91,21.47a.28.28,0,0,1-.18.23.84.84,0,0,1-.31.05h-1.65c-.28,0-1.71.15-1.71-.33,0-.2.11-.15.17-.21.31-.2-.57-7.27-.67-8.37l-3.78,7.92h0l-.29.58c-.09.19-.3.51-.55.29a1.14,1.14,0,0,1-.18-.25h0l-.29-.51-1.89-3.75h0l-.06-.13h0l-.11-.23c-.23-.47-.64-1.36-1.23-2.65l-.55-1.18L307,20c0,.87-.07,1.21.84,1.25.49,0,.47.55-.1.53s-1,0-1.54-.05l-1.37.05a.54.54,0,0,1-.27-.06h0c-.24-.13-.15-.34,0-.43h0a.22.22,0,0,1,.13,0c.79,0,.89-.43,1-1.26L306.89,9.4c0-.17.11-.42.33-.42s.3.17.38.32l4.81,9.91L317,9.32c.07-.15.18-.34.38-.34a.28.28,0,0,1,.26.19,1.14,1.14,0,0,1,.08.38h0l1.09,10h0l0,.17h0a2.65,2.65,0,0,0,.29,1c.29.47,1,.5,1.46.5.12,0,.3.08.28.25Z"/>
    <path class="cls-1"
          d="M335.89,21.75l-1.2,0h0l-.8,0-1.58.05a.6.6,0,0,1-.26-.05.25.25,0,0,1,.12-.48l.46-.06c.37-.09.38-1,.4-1.29,0-1,0-2,0-3h0V12.25q-1.57,1.85-3.13,3.73h0l-.9,1.11c-1.26,1.56-2.48,3.16-3.7,4.75a.62.62,0,0,1-.16.19h0a.35.35,0,0,1-.23.09c-.2,0-.3-.15-.3-.44V10.55c0-.51-.17-.72-.68-.79a3,3,0,0,0-.44,0,.26.26,0,0,1-.27-.29c0-.12.18-.24.39-.24l1.82.06L327,9.2c.27,0,.41.1.41.28s-.09.25-.28.25c-.58.07-.86.19-.86.82v8.2l.45-.53,1.74-2.06h0l.4-.48h0c.71-.86,1.43-1.73,2.13-2.61.52-.64,1-1.29,1.55-1.94L334,9.24a.48.48,0,0,1,.39-.28c.33,0,.3.39.3.62V16.9h0c0,.86,0,1.73,0,2.59,0,.51-.06,1.49.57,1.67l.71.06c.38,0,.34.53-.13.53Z"/>
    <path class="cls-1"
          d="M55.65,37.1V30.92h.82v2.54h3.21V30.92h.82V37.1h-.82V34.19H56.47V37.1Zm7.18,0,2.38-6.18h.88l2.53,6.18h-.93L67,35.23H64.38L63.7,37.1Zm1.79-2.54h2.09l-.64-1.71c-.2-.52-.35-1-.44-1.28a7.48,7.48,0,0,1-.34,1.18l-.67,1.81Zm6.31-3.64h.82v5.45H75V30.92h.82v5.45h.57v2.44h-.73V37.1h-4.7V30.92Zm8,0h.74v4.89L83,30.92h.82V37.1h-.74V32.21L79.8,37.1H79V30.92Zm7.6,3.17a3.32,3.32,0,0,1,.83-2.41,2.8,2.8,0,0,1,2.13-.87,2.89,2.89,0,0,1,1.54.41,2.63,2.63,0,0,1,1,1.14,4,4,0,0,1,0,3.34A2.58,2.58,0,0,1,91,36.82a3.05,3.05,0,0,1-1.51.38A2.94,2.94,0,0,1,88,36.78a2.76,2.76,0,0,1-1-1.15,3.58,3.58,0,0,1-.35-1.54Zm.84,0a2.47,2.47,0,0,0,.6,1.76,2,2,0,0,0,1.51.64,2,2,0,0,0,1.52-.65,2.6,2.6,0,0,0,.6-1.84,3.2,3.2,0,0,0-.26-1.32,2,2,0,0,0-1.85-1.18,2.06,2.06,0,0,0-1.49.6,2.65,2.65,0,0,0-.63,2Zm7.8,3V30.92H96v2.54h3.21V30.92h.82V37.1h-.82V34.19H96V37.1Zm7.19,0,2.37-6.18h.88l2.53,6.18h-.93l-.72-1.87H104l-.68,1.87Zm1.78-2.54h2.1l-.65-1.71c-.19-.52-.34-1-.44-1.28a7.44,7.44,0,0,1-.33,1.18l-.68,1.81Zm7-3.64H115V37.1h-.82V31.65H112v3.18a8,8,0,0,1-.09,1.42,1.2,1.2,0,0,1-.38.7,1.09,1.09,0,0,1-.74.25,2.45,2.45,0,0,1-.65-.1l.14-.72a1,1,0,0,0,.35.08.46.46,0,0,0,.41-.21,2,2,0,0,0,.14-1V30.92Zm6.9,0h.82v2.64h1.48a3.45,3.45,0,0,1,1.49.24,1.46,1.46,0,0,1,.67.65,2,2,0,0,1,.2.85,1.8,1.8,0,0,1-.49,1.26,2.41,2.41,0,0,1-1.82.54H118V30.92Zm.82,5.48h1.5a1.54,1.54,0,0,0,1.18-.32,1.13,1.13,0,0,0,.28-.78,1,1,0,0,0-.2-.63.93.93,0,0,0-.53-.33,5.8,5.8,0,0,0-1.13-.08h-1.1V36.4Zm6.5.7V30.92h.82v2.54h3.21V30.92h.82V37.1h-.82V34.19h-3.21V37.1Zm7.91-6.18h.81v2.64h1.48a2.5,2.5,0,0,1,1.91.53,1.84,1.84,0,0,1,0,2.47,2.43,2.43,0,0,1-1.82.54h-2.35V30.92Zm.81,5.48h1.5a1.85,1.85,0,0,0,1.12-.26,1,1,0,0,0,.35-.83,1,1,0,0,0-.21-.64.91.91,0,0,0-.55-.34,5.77,5.77,0,0,0-1.11-.07h-1.1V36.4Zm4.59-5.48h.81V37.1h-.81V30.92Zm3.87,0h.74v4.89l3.28-4.89h.83V37.1h-.74V32.21l-3.3,4.89h-.81V30.92Zm3.07-1.47h.52a1.2,1.2,0,0,1-.39.81,1.29,1.29,0,0,1-.86.28,1.15,1.15,0,0,1-1.25-1.09h.52a.65.65,0,0,0,.71.56.8.8,0,0,0,.51-.13.7.7,0,0,0,.24-.43Zm9.59,1.47h.74v4.89l3.28-4.89h.83V37.1h-.75V32.21L156,37.1h-.81V30.92Zm12.25,4,.82.21a2.81,2.81,0,0,1-.92,1.54,2.57,2.57,0,0,1-1.64.52,2.9,2.9,0,0,1-1.62-.4,2.57,2.57,0,0,1-1-1.18,4.38,4.38,0,0,1-.32-1.66,3.59,3.59,0,0,1,.37-1.68,2.48,2.48,0,0,1,1-1.1,3.13,3.13,0,0,1,1.49-.37,2.56,2.56,0,0,1,1.56.47,2.47,2.47,0,0,1,.89,1.33l-.81.19a1.91,1.91,0,0,0-.62-1,1.66,1.66,0,0,0-1-.31,2,2,0,0,0-1.19.34,1.85,1.85,0,0,0-.68.92,3.66,3.66,0,0,0-.19,1.19,3.82,3.82,0,0,0,.23,1.37,1.66,1.66,0,0,0,.71.88,2,2,0,0,0,1.06.29,1.79,1.79,0,0,0,1.16-.39,2,2,0,0,0,.64-1.18Zm7.89,0,.82.21a2.81,2.81,0,0,1-.92,1.54,2.57,2.57,0,0,1-1.64.52,2.9,2.9,0,0,1-1.62-.4,2.57,2.57,0,0,1-1-1.18A4.38,4.38,0,0,1,170.7,34a3.71,3.71,0,0,1,.36-1.68,2.56,2.56,0,0,1,1.06-1.1,3.13,3.13,0,0,1,1.49-.37,2.56,2.56,0,0,1,1.56.47,2.45,2.45,0,0,1,.88,1.33l-.8.19a1.86,1.86,0,0,0-.63-1,1.61,1.61,0,0,0-1-.31,2,2,0,0,0-1.19.34,1.85,1.85,0,0,0-.68.92,3.66,3.66,0,0,0-.19,1.19,3.82,3.82,0,0,0,.23,1.37,1.66,1.66,0,0,0,.71.88,2,2,0,0,0,1.05.29,1.8,1.8,0,0,0,1.17-.39,2,2,0,0,0,.64-1.18Zm3.65-4h3.87V37.1H182V31.65H179.8v3.18a8,8,0,0,1-.09,1.42,1.2,1.2,0,0,1-.38.7,1.07,1.07,0,0,1-.74.25,2.39,2.39,0,0,1-.64-.1l.13-.72a1.07,1.07,0,0,0,.35.08.47.47,0,0,0,.42-.21,2.14,2.14,0,0,0,.14-1V30.92Zm6.88,6.18V30.92h4.47v.73h-3.65v1.89h3.42v.73h-3.42v2.1h3.8v.73Zm8-6.18h3.76v5.45h.56v2.17h-.73V37.1h-4.09v1.44h-.73V36.37h.48c.5-.75.75-2.27.75-4.55v-.9Zm2.94.73h-2.15V32c0,.53-.05,1.25-.14,2.16a7.11,7.11,0,0,1-.56,2.25h2.85V31.65Zm3.75,2.44a3.36,3.36,0,0,1,.83-2.41,2.8,2.8,0,0,1,2.13-.87,2.92,2.92,0,0,1,1.55.41,2.67,2.67,0,0,1,1,1.14,3.68,3.68,0,0,1,.36,1.66,3.58,3.58,0,0,1-.38,1.68A2.58,2.58,0,0,1,205,36.82a3,3,0,0,1-1.5.38,2.94,2.94,0,0,1-1.56-.42,2.63,2.63,0,0,1-1-1.15,3.45,3.45,0,0,1-.36-1.54Zm.84,0a2.52,2.52,0,0,0,.6,1.76,2,2,0,0,0,1.51.64,1.93,1.93,0,0,0,1.52-.65,2.6,2.6,0,0,0,.6-1.84,3.2,3.2,0,0,0-.26-1.32,1.91,1.91,0,0,0-.74-.87,2,2,0,0,0-1.1-.31,2.1,2.1,0,0,0-1.5.6,2.69,2.69,0,0,0-.63,2Zm7.75,3V30.92h2.32a2.93,2.93,0,0,1,1.13.18,1.57,1.57,0,0,1,.92,1.4,1.33,1.33,0,0,1-.22.74,1.46,1.46,0,0,1-.65.57,1.61,1.61,0,0,1,.86.56,1.46,1.46,0,0,1,.31.94,1.81,1.81,0,0,1-.19.8,1.58,1.58,0,0,1-.45.58,1.85,1.85,0,0,1-.68.3,4,4,0,0,1-1,.11Zm.82-3.59h1.33a2.83,2.83,0,0,0,.78-.07.8.8,0,0,0,.47-.31.84.84,0,0,0,.16-.53,1,1,0,0,0-.15-.55.73.73,0,0,0-.42-.32,3.91,3.91,0,0,0-.94-.08h-1.23v1.86Zm0,2.86h1.53a3.43,3.43,0,0,0,.56,0,1.36,1.36,0,0,0,.47-.17,1,1,0,0,0,.32-.34,1.11,1.11,0,0,0,.12-.52,1,1,0,0,0-.18-.6.89.89,0,0,0-.49-.36,3,3,0,0,0-.9-.11h-1.43v2.13Zm5.66.73L218,30.92h.88l2.53,6.18h-.94l-.72-1.87h-2.58l-.68,1.87Zm1.78-2.54h2.1l-.64-1.71c-.2-.52-.35-1-.44-1.28a7.48,7.48,0,0,1-.34,1.18l-.68,1.81Zm7.21,2.54V31.65h-2v-.73h4.9v.73h-2V37.1Zm5.37,0V30.92h4.47v.73h-3.65v1.89h3.42v.73h-3.42v2.1h3.8v.73Zm7.85-6.18h3.87V37.1h-.82V31.65h-2.23v3.18a8,8,0,0,1-.09,1.42,1.2,1.2,0,0,1-.38.7,1.09,1.09,0,0,1-.74.25,2.45,2.45,0,0,1-.65-.1l.14-.72a1,1,0,0,0,.35.08.46.46,0,0,0,.41-.21,2.14,2.14,0,0,0,.14-1V30.92Zm6.9,0h.82v2.64H247a3.47,3.47,0,0,1,1.5.24,1.46,1.46,0,0,1,.67.65,2,2,0,0,1,.2.85,1.8,1.8,0,0,1-.49,1.26,2.43,2.43,0,0,1-1.82.54H244.7V30.92Zm.82,5.48H247a1.54,1.54,0,0,0,1.18-.32,1.18,1.18,0,0,0,.28-.78,1,1,0,0,0-.2-.63.93.93,0,0,0-.53-.33,5.85,5.85,0,0,0-1.14-.08h-1.09V36.4Zm10.69-1.47.82.21a2.77,2.77,0,0,1-.93,1.54,2.53,2.53,0,0,1-1.63.52,2.9,2.9,0,0,1-1.62-.4,2.57,2.57,0,0,1-1-1.18,4.38,4.38,0,0,1-.32-1.66,3.71,3.71,0,0,1,.36-1.68,2.56,2.56,0,0,1,1.06-1.1,3.13,3.13,0,0,1,1.49-.37,2.56,2.56,0,0,1,1.56.47,2.47,2.47,0,0,1,.89,1.33l-.81.19a1.91,1.91,0,0,0-.62-1,1.66,1.66,0,0,0-1-.31,2,2,0,0,0-1.19.34,1.85,1.85,0,0,0-.68.92,3.66,3.66,0,0,0-.19,1.19,3.61,3.61,0,0,0,.23,1.37,1.66,1.66,0,0,0,.71.88,2,2,0,0,0,1.06.29,1.79,1.79,0,0,0,1.16-.39,2,2,0,0,0,.64-1.18Zm3.5-4h.81v2.7a1.15,1.15,0,0,0,.79-.21,3.68,3.68,0,0,0,.58-1,5.33,5.33,0,0,1,.43-.85,1.4,1.4,0,0,1,.47-.43,1.43,1.43,0,0,1,.68-.17h.5v.71h-.33a.77.77,0,0,0-.58.19,2.72,2.72,0,0,0-.45.81,3.2,3.2,0,0,1-.52,1,2.1,2.1,0,0,1-.52.33,2.26,2.26,0,0,1,1.18,1.1L264,37.1h-1l-1-1.68a4.81,4.81,0,0,0-.72-1,1,1,0,0,0-.74-.26V37.1h-.81V30.92Zm6.68,0h.74v4.89l3.29-4.89h.82V37.1h-.74V32.21l-3.29,4.89h-.82V30.92Zm7.86,0H275v4.89l3.29-4.89h.82V37.1h-.74V32.21l-3.29,4.89h-.82V30.92Zm3.08-1.47h.51a1.24,1.24,0,0,1-.38.81,1.31,1.31,0,0,1-.86.28,1.29,1.29,0,0,1-.86-.28,1.2,1.2,0,0,1-.39-.81h.52a.64.64,0,0,0,.7.56.85.85,0,0,0,.52-.13.7.7,0,0,0,.24-.43Zm8.94,1.47h.83l2,3.78,1.77-3.78h.81l-2.32,4.8a4.72,4.72,0,0,1-.71,1.18,1.07,1.07,0,0,1-.8.28,2.8,2.8,0,0,1-.77-.14v-.7a1.43,1.43,0,0,0,.69.19.77.77,0,0,0,.52-.2,2.64,2.64,0,0,0,.48-.87l-2.51-4.54Zm7.79,6.18V30.92h.82v2.54h3.21V30.92h.82V37.1h-.82V34.19h-3.21V37.1Zm7.88-6.18h.74v4.89L306,30.92h.82V37.1h-.74V32.21l-3.29,4.89h-.82V30.92Zm7.81,6.18V30.92h2.32a3,3,0,0,1,1.14.18,1.46,1.46,0,0,1,.67.58,1.53,1.53,0,0,1,.24.82,1.41,1.41,0,0,1-.21.74,1.52,1.52,0,0,1-.65.57,1.64,1.64,0,0,1,.86.56,1.51,1.51,0,0,1,.3.94,1.8,1.8,0,0,1-.18.8,1.69,1.69,0,0,1-.45.58,1.85,1.85,0,0,1-.68.3,4.07,4.07,0,0,1-1,.11Zm.82-3.59h1.34a2.93,2.93,0,0,0,.78-.07.83.83,0,0,0,.47-.31.9.9,0,0,0,.16-.53,1,1,0,0,0-.15-.55.8.8,0,0,0-.42-.32,4,4,0,0,0-.94-.08h-1.24v1.86Zm0,2.86h1.54a3.51,3.51,0,0,0,.56,0,1.44,1.44,0,0,0,.47-.17.85.85,0,0,0,.31-.34,1.11,1.11,0,0,0,.12-.52,1.08,1.08,0,0,0-.17-.6.88.88,0,0,0-.5-.36,2.91,2.91,0,0,0-.9-.11h-1.43v2.13Zm6.65.73V30.92h4.47v.73H318v1.89h3.42v.73H318v2.1h3.79v.73Zm7.4,0V30.92H327a5.57,5.57,0,0,1,.94.06,1.73,1.73,0,0,1,.76.29,1.43,1.43,0,0,1,.49.59,2,2,0,0,1-.31,2.18,2.41,2.41,0,0,1-1.81.55h-1.59V37.1Zm.81-3.24H327a1.68,1.68,0,0,0,1.13-.3,1.06,1.06,0,0,0,.33-.83,1.1,1.1,0,0,0-.2-.66.9.9,0,0,0-.51-.37,4.22,4.22,0,0,0-.77-.05h-1.58v2.21Zm10.91,1.07.82.21a2.81,2.81,0,0,1-.92,1.54,2.57,2.57,0,0,1-1.64.52,3,3,0,0,1-1.63-.4,2.62,2.62,0,0,1-1-1.18A4.2,4.2,0,0,1,331.7,34a3.71,3.71,0,0,1,.36-1.68,2.6,2.6,0,0,1,1.05-1.1,3.2,3.2,0,0,1,1.5-.37,2.56,2.56,0,0,1,1.56.47,2.45,2.45,0,0,1,.88,1.33l-.8.19a1.86,1.86,0,0,0-.63-1,1.61,1.61,0,0,0-1-.31,2,2,0,0,0-1.19.34,1.85,1.85,0,0,0-.68.92,3.66,3.66,0,0,0-.19,1.19,3.82,3.82,0,0,0,.23,1.37,1.66,1.66,0,0,0,.71.88,2,2,0,0,0,1,.29,1.8,1.8,0,0,0,1.17-.39,2.08,2.08,0,0,0,.64-1.18Zm3.49-4h.74v4.89l3.29-4.89h.83V37.1h-.75V32.21l-3.29,4.89h-.82V30.92Zm9.42,6.18V31.65h-2v-.73h4.9v.73h-2.05V37.1Zm5.38,0V30.92h4.47v.73h-3.66v1.89h3.42v.73h-3.42v2.1h3.8v.73Zm9,0V31.65h-2v-.73h4.9v.73h-2V37.1Z"/>
    <path class="cls-1"
          d="M255.46,21.47c0,.18-.17.28-.5.28h-1.67l-.3,0a2.51,2.51,0,0,1-.67-.15h0a3.48,3.48,0,0,1-.64-.32h0l-.31-.23-.43-.33h0a1.77,1.77,0,0,1-.17-.14l-.22-.21c-.43-.42-1.12-1.13-2.05-2.12h0l-1.56-1.69-.76-.87V16.9h0v1a9.3,9.3,0,0,0,.23,3,.48.48,0,0,0,.35.19h0a2.2,2.2,0,0,1,.65.06c.28.09.38.31.09.48a.63.63,0,0,1-.26.05h-1.09l-.78,0-1.55.05a.6.6,0,0,1-.26-.05.24.24,0,0,1-.12-.32.34.34,0,0,1,.24-.16l.47-.06c.29-.07.32-.54.35-.76.05-.45.05-.9.06-1.35h0V16.9h0V14.05h0V12.14h0V10.55a1,1,0,0,0,0-.32.47.47,0,0,0-.14-.27.85.85,0,0,0-.51-.2,2.94,2.94,0,0,0-.44,0c-.19,0-.28-.08-.28-.25a.25.25,0,0,1,.15-.23h0a.6.6,0,0,1,.26-.05h1l.76,0L247,9.2h0c.28,0,.41.1.41.28h0a.19.19,0,0,1,0,.13h0a.13.13,0,0,1-.07.06h0a.29.29,0,0,1-.16,0l-.41,0a.52.52,0,0,0-.37.22h0a1,1,0,0,0-.13.55v4.17l.78-.81,1.62-1.68h0l1.2-1.23.43-.46h0a3.38,3.38,0,0,0,.25-.31h0l0-.06,0-.06h0a.46.46,0,0,0,.06-.16h0a.31.31,0,0,0,0-.15h0a.12.12,0,0,0-.05,0h0l-.17-.09a.22.22,0,0,1-.11-.18c0-.18.12-.27.35-.27h0l1.21.05,1.55-.05h0a.62.62,0,0,1,.25.05h0a.23.23,0,0,1,.14.22c0,.17-.1.26-.31.26a2,2,0,0,0-.4,0,4.61,4.61,0,0,0-.47.17h0l-.15.07-.14.08h0a3.87,3.87,0,0,0-.7.51l-.69.7h0c-.24.22-.65.62-1.22,1.18h0l-1.6,1.58c-.31.31-.52.54-.65.68l.32.33.77.81h0l.71.74h0l1.2,1.22c.71.72,1.17,1.17,1.36,1.35l.74.7h0l.39.35h0a5.86,5.86,0,0,0,.6.45,4.65,4.65,0,0,0,.63.32,1.23,1.23,0,0,0,.25.08l.3.07h0l.39,0c.24,0,.36.08.36.25Z"/>
    <path class="cls-1"
          d="M352.2,21.47c0,.18-.16.28-.5.28H350l-.3,0a2.6,2.6,0,0,1-.67-.15h0a3.48,3.48,0,0,1-.64-.32h0L348.1,21l-.42-.33h0a1.77,1.77,0,0,1-.17-.14l-.22-.21c-.43-.42-1.11-1.13-2.05-2.12h0c-.64-.68-1.16-1.25-1.56-1.69l-.76-.87V16.9h0v1a9.3,9.3,0,0,0,.23,3,.48.48,0,0,0,.35.19h0a2.18,2.18,0,0,1,.65.06c.28.09.38.31.09.48a.63.63,0,0,1-.26.05H342.9l-.77,0-1.56.05a.6.6,0,0,1-.26-.05.24.24,0,0,1-.12-.32.34.34,0,0,1,.24-.16l.47-.06c.29-.07.32-.54.35-.76.05-.45.05-.9.06-1.35h0l0-1V16.9h0V14.05h0V12.14h0V10.55a1.47,1.47,0,0,0,0-.32.47.47,0,0,0-.14-.27.85.85,0,0,0-.51-.2,2.94,2.94,0,0,0-.44,0c-.19,0-.28-.08-.28-.25a.25.25,0,0,1,.15-.23h0a.6.6,0,0,1,.26-.05h1l.77,0,1.58-.05h0c.28,0,.41.1.41.28h0a.19.19,0,0,1-.05.13h0a.13.13,0,0,1-.07.06h0a.27.27,0,0,1-.16,0l-.41,0a.52.52,0,0,0-.37.22h0a1,1,0,0,0-.14.55v4.17l.78-.81,1.62-1.68h0l1.2-1.23.43-.46h0a3.38,3.38,0,0,0,.25-.31h0l0-.06,0-.06h0a.46.46,0,0,0,.06-.16h0a.54.54,0,0,0,0-.15h0a.12.12,0,0,0-.05,0h0l-.17-.09a.21.21,0,0,1-.1-.18c0-.18.11-.27.34-.27h0l1.21.05,1.54-.05h0a.54.54,0,0,1,.24.05h0a.22.22,0,0,1,.15.22c0,.17-.1.26-.31.26a2,2,0,0,0-.4,0,4.61,4.61,0,0,0-.47.17h0l-.15.07-.14.08h0a3.87,3.87,0,0,0-.7.51l-.69.7h0c-.24.22-.64.62-1.21,1.18h0l-1.61,1.58c-.31.31-.52.54-.65.68l.32.33.77.81h0l.71.74h0l1.2,1.22c.71.72,1.17,1.17,1.36,1.35l.75.7h0l.39.35h0a5.86,5.86,0,0,0,.6.45,4.65,4.65,0,0,0,.63.32l.24.08.31.07h0l.39,0c.24,0,.36.08.36.25Z"/>
    <path class="cls-1"
          d="M269.1,15.2A6.71,6.71,0,0,1,267.3,20h0c-.17.18-.36.36-.54.52h0a5.9,5.9,0,0,1-.58.44,6.74,6.74,0,0,1-8.6-1.11h0a6.41,6.41,0,0,1-.39-.52c-.12-.18-.23-.36-.34-.55a6.86,6.86,0,0,1-.77-3.29,6.43,6.43,0,0,1,.38-2.24,6.65,6.65,0,0,1,1.16-2,6,6,0,0,1,2.17-1.68,7.69,7.69,0,0,1,5.41-.14h0l.37.15a6.11,6.11,0,0,1,1.72,1.11,5.89,5.89,0,0,1,1.83,4.54Zm-1.85.46a7.57,7.57,0,0,0-.37-2.46,5.23,5.23,0,0,0-1.08-1.88h0a4.57,4.57,0,0,0-1.51-1.12,5,5,0,0,0-3.67,0,4.06,4.06,0,0,0-1.42,1h0a4.58,4.58,0,0,0-.56.75h0a4.84,4.84,0,0,0-.41.89A7.31,7.31,0,0,0,257.9,15h0a6.56,6.56,0,0,0,1.44,4.4h0a4.22,4.22,0,0,0,.41.43,4.88,4.88,0,0,0,.45.37,4.57,4.57,0,0,0,4.46.48h0a1.77,1.77,0,0,0,.31-.15l.28-.17h0a4,4,0,0,0,1.17-1.23h0a6.55,6.55,0,0,0,.82-3.47Z"/>
    <path class="cls-1"
          d="M365.89,21.75l-1.2,0h0l-.79,0-1.59.05a.6.6,0,0,1-.26-.05.25.25,0,0,1,.12-.48l.46-.06c.38-.09.38-1,.4-1.29,0-1,0-2,0-3h0V12.25q-1.59,1.85-3.13,3.73h0l-.9,1.11c-1.25,1.56-2.48,3.16-3.7,4.75a.62.62,0,0,1-.16.19h0a.35.35,0,0,1-.23.09c-.2,0-.3-.15-.3-.44V10.55c0-.51-.17-.72-.68-.79a2.94,2.94,0,0,0-.44,0,.27.27,0,0,1-.27-.29c0-.12.18-.24.4-.24l1.81.06L357,9.2c.26,0,.4.1.4.28s-.09.25-.27.25c-.59.07-.86.19-.86.82v8.2l.45-.53,1.74-2.06h0l.4-.48h0Q360,14.38,361,13.06c.52-.64,1-1.29,1.55-1.94L364,9.24a.49.49,0,0,1,.39-.28c.33,0,.3.39.3.62V16.9h0c0,.86,0,1.73,0,2.59,0,.51-.07,1.49.56,1.67l.71.06c.39,0,.34.53-.13.53Z"/>
    <path class="cls-1"
          d="M123.44,16.09,122,11.86l-1.38,4.23Zm1.83,4.85L123.79,17l0-.06h-3.48s0,0,0,0c-.37,1.07-.76,2.11-1.09,3.21-.11.41-.27,1,.36,1h.16c.21,0,.32.08.32.25a.25.25,0,0,1-.14.23.6.6,0,0,1-.26.05l-1.26-.05-1.83.05a.76.76,0,0,1-.29-.05.25.25,0,0,1-.12-.38h0a.18.18,0,0,1,.07,0h0a.31.31,0,0,1,.17,0,1.26,1.26,0,0,0,1.19-.43,4.16,4.16,0,0,0,.5-1l3.67-10.06c.08-.22.19-.75.5-.75a.31.31,0,0,1,.27.16c.13.26.25.58.35.84.33.88.67,1.76,1,2.64.54,1.42,1.1,3,1.59,4.28a12.33,12.33,0,0,0,1.88,3.85,1.11,1.11,0,0,0,.88.45c.21,0,.56,0,.49.32,0,.14-.32.24-.46.23l-2.55,0c-.18,0-.63,0-.63-.28s.33-.2.22-.49Z"/>
    <path class="cls-1"
          d="M216.74,16.09l-1.48-4.23-1.38,4.23Zm1.83,4.85L217.09,17l0-.06h-3.48s0,0,0,0c-.36,1.07-.75,2.11-1.08,3.21-.11.41-.28,1,.36,1H213c.21,0,.31.08.31.25a.25.25,0,0,1-.14.23.58.58,0,0,1-.26.05l-1.26-.05-1.83.05a.76.76,0,0,1-.29-.05.24.24,0,0,1-.11-.38h0a.18.18,0,0,1,.07,0h0a.27.27,0,0,1,.16,0,1.25,1.25,0,0,0,1.19-.43,3.82,3.82,0,0,0,.5-1L215,9.73c.08-.22.19-.75.5-.75a.33.33,0,0,1,.28.16c.12.26.24.58.34.84.33.88.67,1.76,1,2.64.54,1.42,1.1,3,1.6,4.28a12.32,12.32,0,0,0,1.87,3.85,1.11,1.11,0,0,0,.88.45c.21,0,.56,0,.49.32,0,.14-.32.24-.46.23l-2.54,0c-.19,0-.64,0-.64-.28s.34-.2.22-.49Z"/>
    <path class="cls-1"
          d="M166.48,21.75h-1.19l-.8,0H150.74l-1.58.05h0a.63.63,0,0,1-.26-.05.25.25,0,0,1-.15-.23v0l0,0a.34.34,0,0,1,.24-.16c.47-.06.63,0,.76-.49h0l.06-.33h0c0-.13,0-.31,0-.53s0-.5,0-.82h0V16.9h0V14.05h0V12.14h0V10.55a1.51,1.51,0,0,0,0-.32.62.62,0,0,0-.57-.46h-.09a2.94,2.94,0,0,0-.44,0c-.19,0-.28-.08-.28-.25s.14-.28.41-.28h0l1.83.05,1.58-.05h0c.27,0,.41.1.41.28a.23.23,0,0,1-.1.2.32.32,0,0,1-.18.05l-.4,0a.52.52,0,0,0-.36.22h0a1,1,0,0,0-.13.55V16.9h0v2c0,.31,0,.59,0,.85s0,.47.05.66h0c0,.06,0,.11,0,.15a.9.9,0,0,0,0,.16h0v0h0a.19.19,0,0,0,.13,0h4.56a.33.33,0,0,0,.15,0h0a.05.05,0,0,0,0,0h0v0l.05-.3h0v-.08h0V20q0-.36,0-1h0V16.9h0V14.05h0V12.14h0V10.53h0a1.39,1.39,0,0,0,0-.3h0a.67.67,0,0,0-.09-.21h0a.75.75,0,0,0-.57-.26l-.14,0h-.1c-.19,0-.29-.08-.29-.25s.14-.28.41-.28h0l1.63.05,1.58-.05h0c.27,0,.41.1.41.28a.26.26,0,0,1-.1.2.35.35,0,0,1-.18.05l-.4,0a.5.5,0,0,0-.36.22h0a1,1,0,0,0-.13.55V16.9h0v.82c0,.67,0,1.35,0,2,0,.24,0,.47.05.66h0a1.22,1.22,0,0,0,0,.33s.08,0,.2,0h4.59a.33.33,0,0,0,.15,0h0l0,0h0a.08.08,0,0,0,0,0h0v0h0c0-.06,0-.16.05-.3h0q0-.33.06-1.29h0l0-1V16.9h0V10.55a1.51,1.51,0,0,0,0-.32.57.57,0,0,0-.46-.44l-.3,0h-.34c-.19,0-.28-.08-.28-.25s.14-.28.41-.28h0l1.83.05,1.58-.05h0c.27,0,.41.1.41.28a.23.23,0,0,1-.1.2c-.27.2-.7,0-.94.32h0a1,1,0,0,0-.13.55V16.9h0v2.35l0,.41c0,.26,0,.48,0,.66.05.41.06.77.51.84l.71.06h0a.32.32,0,0,1,.26.16c.08.27-.15.37-.39.37Z"/>
    <path class="cls-1"
          d="M21.64,3.3A18.34,18.34,0,1,0,40,21.64,18.34,18.34,0,0,0,21.64,3.3ZM20.27,9.14h1.39c2.49,0,3.53.44,4.71,1.35a5.4,5.4,0,0,1,2,4.27,5.32,5.32,0,0,1-1.28,3.54,6,6,0,0,1-4.14,2.25,15,15,0,0,1-3.31.06V19.38a9.56,9.56,0,0,0,1.15.07,4.2,4.2,0,0,0,3.35-1.63,4.11,4.11,0,0,0,1-2.58h-4.3V14h4.26A3.86,3.86,0,0,0,24.12,12a4.06,4.06,0,0,0-3.27-1.41H14.71L14,9.14Zm-6,24.56.76-1.48V11.59h3.35V32.2h2.37V24.15h3.09v8h2.68V28.53c0-2.22-.12-5.31-2.62-6.91l1.46-.53c3,1.12,4.52,4,4.52,7.89v3.24l.76,1.48Z"/>
</svg>