<svg width="14" height="14" viewBox="0 0 14 14" xmlns="http://www.w3.org/2000/svg">
<path d="M6.69761 8.44084L11.307 3.83062L11.307 3.83061C11.3615 3.77613 11.4262 3.73291 11.4974 3.70343C11.5685 3.67395 11.6448 3.65877 11.7219 3.65877C11.7989 3.65877 11.8752 3.67395 11.9464 3.70343C12.0176 3.73291 12.0822 3.77613 12.1367 3.83061C12.1912 3.88509 12.2344 3.94977 12.2639 4.02095C12.2934 4.09213 12.3086 4.16842 12.3086 4.24546C12.3086 4.32251 12.2934 4.3988 12.2639 4.46998C12.2344 4.54116 12.1912 4.60584 12.1367 4.66032L7.11261 9.68443L7.11246 9.68458L6.69761 8.44084ZM6.69761 8.44084L2.08835 3.83076C2.08833 3.83074 2.08831 3.83072 2.08828 3.8307L2.08821 3.83062L1.96978 3.94903C1.93088 3.91004 1.88468 3.87911 1.83381 3.858C1.78295 3.83689 1.72842 3.82603 1.67334 3.82603C1.61827 3.82603 1.56374 3.83689 1.51287 3.858C1.46201 3.87911 1.4158 3.91004 1.37691 3.94903L6.69761 8.44084ZM1.25864 4.66047L6.2826 9.68443L1.37691 4.5419L1.25849 4.66032L1.25857 4.6604C1.25859 4.66042 1.25861 4.66044 1.25864 4.66047Z" fill="#1D252C" stroke="#1D252C" stroke-width="0.334951"/>
</svg>
