<svg width="40" height="40" viewBox="0 0 40 40"  xmlns="http://www.w3.org/2000/svg">
<path d="M9.45312 40H6.62391L8.62445 37.9995C9.91453 36.7095 10.625 34.9943 10.625 33.1698V32.9028C8.25336 32.6345 6.05148 31.5535 4.32969 29.792C2.34375 27.7604 1.25 25.0874 1.25 22.2656C1.25 19.9984 1.98992 17.8073 3.35281 15.9871C2.00516 14.4881 1.25 12.5596 1.25 10.5469C1.25 6.02367 4.92992 2.34375 9.45312 2.34375C11.0196 2.34375 12.556 2.80969 13.8815 3.67281C16.0967 1.32555 19.1227 0 22.3438 0C28.8055 0 34.0625 5.25703 34.0625 11.7188C34.0625 12.1114 34.0378 12.5125 33.986 12.9443C36.9068 14.5972 38.75 17.7054 38.75 21.0938C38.75 26.2631 34.5444 30.4688 29.375 30.4688C29.1091 30.4688 28.8412 30.4562 28.5682 30.4307C27.9904 31.6722 27.1138 32.7812 26.0372 33.6178C24.6103 34.7265 22.928 35.3125 21.1719 35.3125C20.2523 35.3125 19.3538 35.158 18.4887 34.8521C16.5988 38.0124 13.1652 40 9.45312 40Z" />
</svg>
