<svg width="32" height="32" viewBox="0 0 32 32" xmlns="http://www.w3.org/2000/svg">
<path d="M11.1134 24.4842C9.31407 24.4842 7.85547 25.9428 7.85547 27.7421C7.85547 29.5414 9.31407 31 11.1134 31C12.9127 31 14.3713 29.5414 14.3713 27.7421C14.3713 25.9428 12.9127 24.4842 11.1134 24.4842ZM11.1134 29.6425C10.0638 29.6425 9.21294 28.7917 9.21294 27.7421C9.21294 26.6925 10.0638 25.8417 11.1134 25.8417C12.163 25.8417 13.0138 26.6925 13.0138 27.7421C13.0139 28.7917 12.163 29.6425 11.1134 29.6425Z"/>
<path d="M23.3644 24.4842C21.5651 24.4842 20.1064 25.9428 20.1064 27.7421C20.1064 29.5414 21.5651 31 23.3644 31C25.1637 31 26.6223 29.5414 26.6223 27.7421C26.6223 25.9428 25.1636 24.4842 23.3644 24.4842ZM23.3644 29.6425C22.3148 29.6425 21.4639 28.7917 21.4639 27.7421C21.4639 26.6925 22.3148 25.8417 23.3644 25.8417C24.4139 25.8417 25.2648 26.6925 25.2648 27.7421C25.2648 28.7917 24.4139 29.6425 23.3644 29.6425Z"/>
<path d="M30.7964 5.75114C30.6722 5.56556 30.4746 5.44201 30.2534 5.4118H7.41397C6.871 2.6968 4.52937 1 1.74661 1H1.67873C1.30387 1 1 1.30387 1 1.67873C1 2.0536 1.30387 2.35747 1.67873 2.35747H1.74661C3.88707 2.31122 5.73698 3.84316 6.09047 5.95478L8.33032 19.0543C8.67732 20.9901 10.3683 22.3945 12.3348 22.3801H25.9434C26.3183 22.3801 26.6222 22.0762 26.6222 21.7014C26.6222 21.3265 26.3183 21.0226 25.9434 21.0226H12.3348C11.035 21.0581 9.90682 20.1325 9.68778 18.8507L9.51812 17.9683H24.6199C26.4625 17.9309 28.0625 16.6895 28.5566 14.914L30.8982 6.3959C30.9704 6.17719 30.9325 5.93698 30.7964 5.75114ZM27.233 14.6425C26.8995 15.8087 25.8328 16.6121 24.6199 16.6108H9.28051L8.29634 10.8416H28.285L27.233 14.6425ZM28.6923 9.48415H8.0588L7.65158 6.76921H29.371L28.6923 9.48415Z"/>
</svg>
