<svg width="36" height="32" viewBox="0 0 36 32"  xmlns="http://www.w3.org/2000/svg">
<path d="M31.5857 19.036C30.881 19.036 30.2808 18.497 30.2176 17.782C30.1502 17.0257 30.7098 16.3582 31.4661 16.2915H31.4674C31.5596 15.538 32.2402 15.0066 32.9999 15.0946C33.7541 15.1874 34.2896 15.8735 34.1968 16.627C34.0394 17.9064 32.9923 18.9171 31.7081 19.0305C31.6668 19.0346 31.6256 19.036 31.5857 19.036Z" />
<path d="M9.25292 20.9899C8.54755 20.9899 7.94736 20.4502 7.8848 19.7345C7.81811 18.9776 8.37842 18.3114 9.13467 18.2447L31.4667 16.2908C32.2271 16.2207 32.8899 16.7844 32.9559 17.5407C33.0225 18.2976 32.4622 18.9638 31.706 19.0305L9.37392 20.9844C9.33405 20.9878 9.2928 20.9899 9.25292 20.9899Z" />
<path d="M32.8335 17.8342C32.7771 17.8342 32.7208 17.8308 32.6637 17.8239C31.9095 17.7311 31.3739 17.045 31.4668 16.2915L33.1353 2.74567C33.2288 1.99217 33.9198 1.45661 34.6678 1.54942C35.4219 1.64224 35.9575 2.32836 35.8647 3.08186L34.1961 16.6277C34.1109 17.3241 33.5176 17.8342 32.8335 17.8342Z" />
<path d="M5.59064 6.81774C4.88526 6.81774 4.28508 6.27805 4.22252 5.56236C4.15583 4.80543 4.71614 4.13924 5.47239 4.07255L34.3804 1.54324C35.1394 1.4738 35.8035 2.03686 35.8695 2.79311C35.9362 3.55005 35.3759 4.21624 34.6196 4.28292L5.71164 6.81224C5.67108 6.81567 5.63051 6.81774 5.59064 6.81774Z" />
<path d="M5.23243 4.13099C4.55456 4.13099 3.96399 3.62912 3.87187 2.93818V2.93681C3.11287 2.93681 2.49687 2.32149 2.49687 1.56181C2.49687 0.802118 3.11287 0.186806 3.87187 0.186806C5.24412 0.186806 6.41562 1.21256 6.59781 2.57312C6.69818 3.32593 6.16949 4.01756 5.41668 4.11862C5.35412 4.12687 5.29362 4.13099 5.23243 4.13099Z" />
<path d="M3.87119 2.9375H1.5C0.741 2.9375 0.125 2.3215 0.125 1.5625C0.125 0.8035 0.741 0.1875 1.5 0.1875H3.87119C4.63019 0.1875 5.24619 0.8035 5.24619 1.5625C5.24619 2.3215 4.63088 2.9375 3.87119 2.9375Z" />
<path d="M7.15331 18.5376C6.47544 18.5376 5.88419 18.0357 5.79275 17.3441L3.87119 2.93749C3.77081 2.18468 4.2995 1.49306 5.05231 1.39268C5.80031 1.29093 6.49744 1.82099 6.59712 2.57381L8.518 16.9811C8.61837 17.7339 8.08969 18.4255 7.33687 18.5259C7.275 18.5341 7.2145 18.5376 7.15331 18.5376Z" />
<path d="M13.3367 31.8125C10.7283 31.8125 8.52419 29.6084 8.52419 27C8.52419 24.3916 10.7283 22.1875 13.3367 22.1875C15.9451 22.1875 18.1492 24.3916 18.1492 27C18.1492 29.6084 15.9451 31.8125 13.3367 31.8125ZM13.3367 24.9375C12.2381 24.9375 11.2742 25.9014 11.2742 27C11.2742 28.0986 12.2381 29.0625 13.3367 29.0625C14.4353 29.0625 15.3992 28.0986 15.3992 27C15.3992 25.9014 14.4346 24.9375 13.3367 24.9375Z" />
<path d="M26.3992 31.8125C23.7908 31.8125 21.5867 29.6084 21.5867 27C21.5867 24.3916 23.7908 22.1875 26.3992 22.1875C29.0076 22.1875 31.2117 24.3916 31.2117 27C31.2117 29.6084 29.0076 31.8125 26.3992 31.8125ZM26.3992 24.9375C25.3006 24.9375 24.3367 25.9014 24.3367 27C24.3367 28.0986 25.3006 29.0625 26.3992 29.0625C27.4978 29.0625 28.4617 28.0986 28.4617 27C28.4617 25.9014 27.4971 24.9375 26.3992 24.9375Z" />
<path d="M9.87445 20.9245C7.82501 20.9245 6.06776 19.4134 5.79207 17.3441C5.6917 16.5912 6.22107 15.8996 6.97388 15.7999C7.7212 15.6975 8.41832 16.2289 8.51801 16.9817C8.61564 17.7126 9.27839 18.2275 10.0003 18.1697C10.7737 18.1037 11.4241 18.6641 11.4901 19.4196C11.5568 20.1759 10.9965 20.8427 10.2409 20.9094C10.1178 20.919 9.99476 20.9245 9.87445 20.9245Z" />
</svg>
