<svg width="40" height="40" viewBox="0 0 40 40"  xmlns="http://www.w3.org/2000/svg">
<g clip-path="url(#clip0_89_55)">
<path d="M20 5.9655C21.7326 5.9655 23.2292 4.86076 23.7668 3.23559C22.7411 3.51793 21.4338 3.68834 20 3.68834C18.5663 3.68834 17.259 3.51793 16.2334 3.23559C16.7707 4.86062 18.2672 5.9655 20 5.9655Z" />
<path d="M39.9503 7.96397C39.868 7.73306 39.6967 7.54316 39.4737 7.43975L31.8475 3.91925C30.2254 3.36972 28.5727 2.93565 26.904 2.61838C26.8452 2.60688 26.7867 2.60133 26.7291 2.60133C26.316 2.60133 25.9461 2.88651 25.854 3.30475C25.2447 5.98742 22.8699 7.99591 19.9999 7.99591C17.1301 7.99591 14.7552 5.98756 14.146 3.30475C14.0528 2.88651 13.6836 2.60133 13.2708 2.60133C13.2131 2.60133 13.1546 2.60688 13.0959 2.61838C11.4273 2.93565 9.77463 3.36972 8.14987 3.91925L0.526444 7.43962C0.302031 7.54302 0.129592 7.73292 0.0512235 7.96383C-0.0298523 8.19745 -0.0152343 8.44961 0.0990027 8.66996L3.40971 15.2037C3.56469 15.5138 3.87992 15.6999 4.21343 15.6999C4.29951 15.6999 4.38682 15.6874 4.4729 15.6616L8.15 14.5717V36.4947C8.15 36.9925 8.5562 37.3985 9.05537 37.3985H30.9449C31.4427 37.3985 31.8477 36.9924 31.8477 36.4947V14.572L35.5274 15.6618C35.6134 15.6877 35.7006 15.7001 35.7866 15.7001C36.1194 15.7001 36.4334 15.514 36.5905 15.2039L39.9025 8.67023C40.014 8.44975 40.03 8.19759 39.9503 7.96397Z" />
</g>
<defs>
<clipPath id="clip0_89_55">
<rect width="40" height="40" />
</clipPath>
</defs>
</svg>
