<svg width="27" height="27" viewBox="0 0 27 27"  xmlns="http://www.w3.org/2000/svg">
<g clip-path="url(#clip0_89_14)">
<path d="M26.5229 7.84398C26.4609 6.43636 26.2332 5.46864 25.9072 4.63009C25.5708 3.74 25.0533 2.9431 24.3752 2.28063C23.7128 1.60785 22.9106 1.08508 22.0308 0.753943C21.1874 0.427865 20.2248 0.200236 18.8171 0.138174C17.399 0.0708563 16.9488 0.0552902 13.352 0.0552902C9.75527 0.0552902 9.30507 0.0708563 7.8922 0.132918C6.48458 0.19498 5.51686 0.422811 4.67852 0.748687C3.78822 1.08508 2.99132 1.6026 2.32885 2.28063C1.65608 2.9431 1.1335 3.74525 0.802168 4.62504C0.47609 5.46864 0.248462 6.43111 0.1864 7.83872C0.119082 9.25685 0.103516 9.70706 0.103516 13.3038C0.103516 16.9006 0.119082 17.3508 0.181144 18.7637C0.243206 20.1713 0.471036 21.139 0.797114 21.9776C1.1335 22.8677 1.65608 23.6646 2.32885 24.327C2.99132 24.9998 3.79348 25.5226 4.67326 25.8537C5.51686 26.1798 6.47933 26.4074 7.88715 26.4695C9.29982 26.5317 9.75022 26.5471 13.347 26.5471C16.9438 26.5471 17.394 26.5317 18.8068 26.4695C20.2144 26.4074 21.1822 26.1798 22.0205 25.8537C23.8009 25.1654 25.2085 23.7577 25.8969 21.9776C26.2227 21.134 26.4506 20.1713 26.5126 18.7637C26.5747 17.3508 26.5903 16.9006 26.5903 13.3038C26.5903 9.70706 26.585 9.25685 26.5229 7.84398ZM24.1373 18.6602C24.0803 19.954 23.863 20.6526 23.6818 21.1184C23.2367 22.2725 22.3207 23.1885 21.1666 23.6336C20.7008 23.8148 19.9971 24.0321 18.7084 24.0889C17.3111 24.1511 16.892 24.1665 13.3573 24.1665C9.82259 24.1665 9.39827 24.1511 8.00601 24.0889C6.71221 24.0321 6.01356 23.8148 5.54779 23.6336C4.97346 23.4214 4.45069 23.085 4.02636 22.6451C3.58647 22.2155 3.25008 21.698 3.03782 21.1236C2.85668 20.6579 2.63937 19.954 2.58256 18.6654C2.5203 17.2681 2.50493 16.8488 2.50493 13.3141C2.50493 9.77943 2.5203 9.3551 2.58256 7.96305C2.63937 6.66925 2.85668 5.97059 3.03782 5.50483C3.25008 4.9303 3.58647 4.40772 4.03162 3.98319C4.461 3.5433 4.97852 3.20691 5.55305 2.99485C6.01882 2.81372 6.72272 2.5964 8.01127 2.53939C9.40858 2.47733 9.82785 2.46176 13.3624 2.46176C16.9023 2.46176 17.3214 2.47733 18.7136 2.53939C20.0074 2.5964 20.7061 2.81372 21.1719 2.99485C21.7462 3.20691 22.269 3.5433 22.6933 3.98319C23.1332 4.41278 23.4696 4.9303 23.6818 5.50483C23.863 5.97059 24.0803 6.6743 24.1373 7.96305C24.1994 9.36036 24.2149 9.77943 24.2149 13.3141C24.2149 16.8488 24.1994 17.2629 24.1373 18.6602Z" />
<path d="M13.3503 6.49843C9.59324 6.49843 6.54492 9.54655 6.54492 13.3038C6.54492 17.0611 9.59324 20.1092 13.3503 20.1092C17.1076 20.1092 20.1557 17.0611 20.1557 13.3038C20.1557 9.54655 17.1076 6.49843 13.3503 6.49843ZM13.3503 17.7183C10.9129 17.7183 8.93583 15.7414 8.93583 13.3038C8.93583 10.8662 10.9129 8.88934 13.3503 8.88934C15.7879 8.88934 17.7648 10.8662 17.7648 13.3038C17.7648 15.7414 15.7879 17.7183 13.3503 17.7183Z" />
<path d="M22.0146 6.22935C22.0146 7.10671 21.3032 7.8181 20.4257 7.8181C19.5483 7.8181 18.8369 7.10671 18.8369 6.22935C18.8369 5.35179 19.5483 4.6406 20.4257 4.6406C21.3032 4.6406 22.0146 5.35179 22.0146 6.22935Z" />
</g>
<defs>
<clipPath id="clip0_89_14">
<rect width="26.4919" height="26.4919"  transform="translate(0.0556641 0.0552902)"/>
</clipPath>
</defs>
</svg>
