<svg version="1.1" id="like_icon" xmlns="http://www.w3.org/2000/svg" xmlns:xlink="http://www.w3.org/1999/xlink" x="0px" y="0px"
	 viewBox="0 0 26 22.9" style="enable-background:new 0 0 26 22.9;" xml:space="preserve">
<path d="M23.7,2.4c-1.3-1.3-3.1-2.1-5-2.1c-1.9,0-3.7,0.7-5,2.1L13,3.1l-0.7-0.7C11,1,9.2,0.3,7.3,0.3
	c-1.9,0-3.7,0.7-5,2.1C1,3.7,0.2,5.4,0.2,7.3c0,1.9,0.7,3.6,2.1,5l10.2,10.1c0.1,0.1,0.3,0.2,0.5,0.2s0.4-0.1,0.5-0.2l10.2-10.1
	c1.3-1.3,2.1-3.1,2.1-5C25.8,5.5,25.1,3.7,23.7,2.4z"/>
</svg>
