<svg width="36" height="36" viewBox="0 0 36 36" xmlns="http://www.w3.org/2000/svg">
<path d="M4.99389 29.5239C4.91414 29.5239 4.83233 29.517 4.75051 29.5019C4.00251 29.3685 3.50476 28.6542 3.63883 27.9062C4.39026 23.7049 6.87833 20.3691 10.4657 18.7535C12.8362 17.6865 15.7175 17.1908 18.7796 17.3201C22.2935 17.4679 25.0799 18.2585 27.2978 19.7359C30.0395 21.6767 31.8738 24.6612 32.3619 27.9461C32.4733 28.6968 31.9549 29.396 31.2035 29.5081C30.4548 29.6201 29.7535 29.1011 29.6415 28.3496C29.2633 25.8031 27.8416 23.4897 25.7406 22.0026C23.9854 20.8339 21.6603 20.1938 18.6641 20.0673C16.0145 19.9552 13.5766 20.3691 11.5953 21.2615C8.8487 22.4983 6.93539 25.0964 6.3462 28.3902C6.22726 29.0564 5.6477 29.5239 4.99389 29.5239Z" />
<path d="M17.9546 20.0508C17.2768 20.0508 16.6023 19.9587 15.9513 19.7758C12.2229 18.7301 9.85588 14.9234 10.5606 11.1106C11.2522 7.36781 14.8327 4.60681 18.6958 4.96294C22.5451 5.317 25.5591 8.62456 25.5591 12.4938C25.5591 13.4171 25.3941 14.3205 25.0682 15.1785C23.9613 18.0928 21.102 20.0508 17.9546 20.0508ZM18.0172 7.682C15.7216 7.682 13.6784 9.37119 13.2645 11.6111C12.8156 14.0393 14.3212 16.4628 16.6931 17.1283C17.1028 17.2431 17.527 17.3008 17.9539 17.3008C19.9676 17.3008 21.7929 16.0557 22.4963 14.2023C22.7039 13.6571 22.8084 13.0823 22.8084 12.4938C22.8084 10.0312 20.8909 7.92675 18.4434 7.70194C18.3011 7.68819 18.1588 7.682 18.0172 7.682Z" />
<path d="M17.9512 35.8612C17.9505 35.8612 17.9505 35.8612 17.9498 35.8612C16.3871 35.8612 14.8368 35.6577 13.3429 35.2556C6.90513 33.5244 1.86369 28.1908 0.499694 21.6685C-0.889056 15.0238 1.67601 8.03881 7.03438 3.87325C10.1329 1.46493 14.04 0.138746 18.0371 0.138746C20.8043 0.138746 23.5523 0.782246 25.9846 1.99843C31.9906 5.0035 35.8723 11.2817 35.8723 17.9938C35.8723 23.4704 33.2879 28.7491 28.9594 32.1137C25.8499 34.5302 21.9394 35.8612 17.9512 35.8612V35.8612ZM18.0371 2.88875C14.6484 2.88875 11.3402 4.00937 8.72219 6.04506C4.18676 9.56987 2.01632 15.4824 3.19194 21.1061C4.34557 26.6233 8.61082 31.1354 14.0572 32.6004C15.3181 32.9394 16.6278 33.1119 17.9505 33.1119H17.9512C21.3323 33.1119 24.6419 31.9865 27.2716 29.9426C30.9346 27.0949 33.1223 22.6276 33.1223 17.9938C33.1223 12.3144 29.8381 7.00137 24.7547 4.45831C22.7025 3.43118 20.3794 2.88875 18.0371 2.88875V2.88875Z" />
</svg>
