<svg width="27" height="32" viewBox="0 0 27 32" xmlns="http://www.w3.org/2000/svg">
<path d="M13.3254 15.4511C15.3107 15.4511 17.0296 14.7391 18.4345 13.3342C19.8389 11.9295 20.5512 10.2109 20.5512 8.22533C20.5512 6.24047 19.8391 4.52157 18.4343 3.11647C17.0294 1.71205 15.3105 1 13.3254 1C11.3398 1 9.62118 1.71205 8.21653 3.1167C6.81189 4.52134 6.09961 6.24024 6.09961 8.22533C6.09961 10.2109 6.81189 11.9298 8.21653 13.3344C9.62164 14.7388 11.3405 15.4511 13.3254 15.4511ZM9.45982 4.35975C10.5376 3.28195 11.802 2.75804 13.3254 2.75804C14.8486 2.75804 16.1132 3.28195 17.1912 4.35975C18.269 5.43778 18.7931 6.70235 18.7931 8.22533C18.7931 9.74876 18.269 11.0131 17.1912 12.0911C16.1132 13.1692 14.8486 13.6931 13.3254 13.6931C11.8024 13.6931 10.5381 13.1689 9.45982 12.0911C8.38179 11.0133 7.85765 9.74876 7.85765 8.22533C7.85765 6.70235 8.38179 5.43778 9.45982 4.35975Z"/>
<path d="M25.9684 24.0685C25.9279 23.4839 25.846 22.8463 25.7254 22.1729C25.6036 21.4945 25.4468 20.8532 25.2591 20.267C25.0651 19.6612 24.8016 19.0629 24.4755 18.4895C24.1374 17.8944 23.7401 17.3762 23.2942 16.9498C22.828 16.5038 22.2571 16.1451 21.597 15.8835C20.9392 15.6232 20.2102 15.4914 19.4304 15.4914C19.1242 15.4914 18.828 15.6171 18.2561 15.9895C17.904 16.219 17.4923 16.4845 17.0327 16.7782C16.6397 17.0286 16.1073 17.2632 15.4497 17.4756C14.8082 17.6832 14.1568 17.7885 13.5136 17.7885C12.8709 17.7885 12.2195 17.6832 11.5775 17.4756C10.9206 17.2634 10.388 17.0288 9.99573 16.7784C9.54048 16.4875 9.12849 16.222 8.77121 15.9892C8.19969 15.6168 7.90352 15.4912 7.59728 15.4912C6.81725 15.4912 6.08849 15.6232 5.43092 15.8837C4.77128 16.1449 4.20022 16.5035 3.73353 16.9501C3.28767 17.3767 2.89033 17.8947 2.5525 18.4895C2.2268 19.0629 1.96313 19.6609 1.76904 20.2672C1.58159 20.8534 1.4248 21.4945 1.30304 22.1729C1.18219 22.8454 1.10048 23.4833 1.05997 24.0692C1.02014 24.6421 1 25.2383 1 25.8407C1 27.4067 1.49782 28.6745 2.47949 29.6095C3.44903 30.5321 4.73168 31 6.29197 31H20.7371C22.297 31 23.5796 30.5321 24.5494 29.6095C25.5313 28.6752 26.0291 27.407 26.0291 25.8405C26.0289 25.236 26.0085 24.6398 25.9684 24.0685ZM23.3372 28.3358C22.6966 28.9455 21.8461 29.2419 20.7369 29.2419H6.29197C5.18258 29.2419 4.33206 28.9455 3.69165 28.336C3.06337 27.7379 2.75804 26.9215 2.75804 25.8407C2.75804 25.2786 2.77658 24.7236 2.81366 24.1907C2.84982 23.668 2.92375 23.0937 3.03338 22.4835C3.14164 21.8809 3.27943 21.3153 3.44331 20.8033C3.60055 20.3123 3.81501 19.8262 4.08097 19.3579C4.3348 18.9116 4.62685 18.5287 4.94912 18.2201C5.25056 17.9315 5.6305 17.6953 6.07819 17.5182C6.49224 17.3543 6.95755 17.2646 7.4627 17.251C7.52426 17.2838 7.6339 17.3463 7.81151 17.4621C8.17291 17.6976 8.58948 17.9663 9.04999 18.2604C9.56909 18.5914 10.2379 18.8903 11.0369 19.1482C11.8538 19.4124 12.6869 19.5465 13.5139 19.5465C14.3408 19.5465 15.1742 19.4124 15.9906 19.1485C16.7903 18.8901 17.4589 18.5914 17.9787 18.26C18.4499 17.9588 18.8548 17.6978 19.2162 17.4621C19.3938 17.3465 19.5035 17.2838 19.565 17.251C20.0704 17.2646 20.5357 17.3543 20.95 17.5182C21.3975 17.6953 21.7774 17.9317 22.0788 18.2201C22.4011 18.5284 22.6932 18.9114 22.947 19.3581C23.2132 19.8262 23.4279 20.3126 23.5849 20.8031C23.749 21.3158 23.887 21.8811 23.995 22.4833C24.1044 23.0946 24.1786 23.6691 24.2148 24.191V24.1914C24.2521 24.7222 24.2708 25.277 24.2711 25.8407C24.2708 26.9217 23.9655 27.7379 23.3372 28.3358Z"/>
</svg>
