<svg width="27" height="27" viewBox="0 0 27 27"  xmlns="http://www.w3.org/2000/svg">
<g clip-path="url(#clip0_89_44)">
<path d="M20.3682 11.1033V6.87888C20.3682 3.11639 17.3071 0.0552883 13.5445 0.0552883C9.78195 0.0552883 6.72093 3.11639 6.72093 6.87888V11.1031C5.22551 12.7444 4.3125 14.9252 4.3125 17.3152C4.3125 22.4057 8.45399 26.5472 13.5445 26.5472C18.6351 26.5472 22.7766 22.4057 22.7766 17.3152C22.7766 14.9252 21.8635 12.7444 20.3682 11.1033ZM13.5445 2.46364C15.9791 2.46364 17.9598 4.44435 17.9598 6.87888V9.20928C16.6474 8.49159 15.1429 8.08314 13.5445 8.08314C11.9463 8.08314 10.4417 8.49159 9.12929 9.20928V6.87888C9.12929 4.44435 11.1099 2.46364 13.5445 2.46364ZM13.5445 24.1388C9.78195 24.1388 6.72085 21.0777 6.72085 17.3152C6.72085 13.5526 9.78195 10.4915 13.5445 10.4915C17.3071 10.4915 20.3682 13.5526 20.3682 17.3152C20.3682 21.0777 17.3071 24.1388 13.5445 24.1388Z" />
<path d="M13.5441 14.104C12.4374 14.104 11.5371 15.0044 11.5371 16.111C11.5371 16.7662 11.8528 17.349 12.3399 17.7154V19.3221C12.3399 19.9871 12.879 20.5263 13.5441 20.5263C14.2091 20.5263 14.7482 19.9871 14.7482 19.3221V17.7154C15.2354 17.349 15.551 16.7661 15.551 16.111C15.551 15.0044 14.6507 14.104 13.5441 14.104Z" />
</g>
<defs>
<clipPath id="clip0_89_44">
<rect width="26.4919" height="26.4919"  transform="translate(0.298828 0.0552902)"/>
</clipPath>
</defs>
</svg>
