<svg width="134" height="134" viewBox="0 0 134 134" fill="none" xmlns="http://www.w3.org/2000/svg">
<g clip-path="url(#clip0_80_598)">
<path fill-rule="evenodd" clip-rule="evenodd" d="M66.9902 125.607C82.5362 125.607 97.4455 119.431 108.438 108.438C119.431 97.4456 125.607 82.5363 125.607 66.9902C125.607 51.4442 119.431 36.5349 108.438 25.5422C97.4455 14.5494 82.5362 8.3738 66.9902 8.3738C51.4441 8.3738 36.5348 14.5494 25.5421 25.5422C14.5494 36.5349 8.37377 51.4442 8.37377 66.9902C8.37377 82.5363 14.5494 97.4456 25.5421 108.438C36.5348 119.431 51.4441 125.607 66.9902 125.607ZM66.9902 133.98C84.7571 133.98 101.796 126.923 114.359 114.359C126.923 101.796 133.98 84.7571 133.98 66.9902C133.98 49.2233 126.923 32.1841 114.359 19.621C101.796 7.05791 84.7571 3.05176e-05 66.9902 3.05176e-05C49.2233 3.05176e-05 32.1841 7.05791 19.621 19.621C7.05788 32.1841 0 49.2233 0 66.9902C0 84.7571 7.05788 101.796 19.621 114.359C32.1841 126.923 49.2233 133.98 66.9902 133.98Z" fill="#FF7D9D"/>
<path fill-rule="evenodd" clip-rule="evenodd" d="M91.858 41.6178C93.0299 40.4561 94.612 39.8023 96.2621 39.7978C97.9122 39.7932 99.4978 40.4382 100.676 41.5934C101.854 42.7486 102.531 44.3212 102.559 45.971C102.587 47.6209 101.965 49.2156 100.826 50.4102L67.3982 92.1954C66.8237 92.8142 66.1303 93.3108 65.3595 93.6555C64.5887 94.0002 63.7562 94.1859 62.912 94.2015C62.0678 94.2172 61.229 94.0624 60.446 93.7465C59.6629 93.4305 58.9516 92.96 58.3546 92.3629L36.2059 70.2058C35.5889 69.6309 35.094 68.9375 34.7507 68.1672C34.4075 67.3968 34.2229 66.5651 34.208 65.7219C34.1931 64.8786 34.3483 64.041 34.6641 63.259C34.98 62.477 35.4501 61.7666 36.0465 61.1702C36.6429 60.5739 37.3532 60.1037 38.1353 59.7878C38.9173 59.472 39.7549 59.3169 40.5982 59.3317C41.4414 59.3466 42.273 59.5312 43.0434 59.8744C43.8138 60.2177 44.5072 60.7126 45.0821 61.3296L62.6168 78.856L91.6989 41.802C91.7508 41.7371 91.8068 41.6756 91.8664 41.6178H91.858Z" fill="#FF7D9D"/>
</g>
<defs>
<clipPath id="clip0_80_598">
<rect width="133.98" height="133.98" fill="white"/>
</clipPath>
</defs>
</svg>
