<svg width="27" height="27" viewBox="0 0 27 27"  xmlns="http://www.w3.org/2000/svg">
<g clip-path="url(#clip0_89_29)">
<path d="M24.9085 6.69845C23.3966 6.69845 22.0016 6.19759 20.8814 5.35264C19.5966 4.38403 18.6736 2.9632 18.3476 1.32556C18.2669 0.920942 18.2234 0.503384 18.2193 0.0754776H13.9004V11.8768L13.8952 18.3409C13.8952 20.0691 12.7698 21.5344 11.2098 22.0498C10.757 22.1993 10.2681 22.2702 9.75894 22.2423C9.10906 22.2066 8.50006 22.0105 7.97074 21.6938C6.84432 21.0201 6.0806 19.798 6.05991 18.3999C6.02731 16.2148 7.79378 14.4334 9.97729 14.4334C10.4083 14.4334 10.8222 14.5037 11.2098 14.6315V11.4059V10.2464C10.801 10.1859 10.385 10.1543 9.96436 10.1543C7.57439 10.1543 5.33914 11.1477 3.74135 12.9375C2.53369 14.29 1.8093 16.0156 1.69754 17.825C1.55111 20.2021 2.42089 22.4616 4.10768 24.1288C4.35553 24.3735 4.61579 24.6007 4.88795 24.8102C6.33414 25.9232 8.10216 26.5265 9.96436 26.5265C10.385 26.5265 10.801 26.4955 11.2098 26.4349C12.9494 26.1772 14.5544 25.3809 15.821 24.1288C17.3774 22.5905 18.2374 20.5482 18.2467 18.3745L18.2244 8.72156C18.9669 9.29435 19.7788 9.7683 20.6501 10.1362C22.0052 10.7079 23.4421 10.9977 24.9209 10.9972V7.86109V6.69742C24.9219 6.69845 24.9095 6.69845 24.9085 6.69845Z" />
</g>
<defs>
<clipPath id="clip0_89_29">
<rect width="26.4919" height="26.4919"  transform="translate(0.0556641 0.0552902)"/>
</clipPath>
</defs>
</svg>
