<svg width="28" height="27" viewBox="0 0 28 27"  xmlns="http://www.w3.org/2000/svg">
<g clip-path="url(#clip0_89_36)">
<path d="M27.3122 5.0871C26.327 5.51924 25.2773 5.80569 24.1829 5.94477C25.3088 5.27254 26.1681 4.21617 26.5721 2.94291C25.5224 3.56878 24.3633 4.01086 23.1281 4.25757C22.1314 3.19624 20.7108 2.53891 19.161 2.53891C16.1542 2.53891 13.7335 4.97947 13.7335 7.9714C13.7335 8.40189 13.7699 8.81583 13.8593 9.2099C9.34408 8.98968 5.34877 6.82563 2.66481 3.52904C2.19624 4.34201 1.92138 5.27254 1.92138 6.27426C1.92138 8.15519 2.88999 9.82252 4.3338 10.7878C3.46122 10.7713 2.6052 10.5179 1.87999 10.1189C1.87999 10.1355 1.87999 10.157 1.87999 10.1785C1.87999 12.8178 3.76257 15.01 6.23128 15.515C5.7892 15.6358 5.30738 15.6938 4.80734 15.6938C4.45964 15.6938 4.10862 15.6739 3.77913 15.6011C4.48282 17.7519 6.47964 19.3331 8.85398 19.3844C7.00617 20.8299 4.65998 21.7008 2.12007 21.7008C1.67468 21.7008 1.24749 21.681 0.820312 21.6263C3.22611 23.1777 6.0773 24.0636 9.15201 24.0636C19.1461 24.0636 24.61 15.7849 24.61 8.60886C24.61 8.36878 24.6018 8.13697 24.5902 7.90683C25.6681 7.14187 26.5737 6.18651 27.3122 5.0871Z" />
</g>
<defs>
<clipPath id="clip0_89_36">
<rect width="26.4919" height="26.4919"  transform="translate(0.820312 0.0552902)"/>
</clipPath>
</defs>
</svg>
